<svg id="Layer_1" data-name="Layer 1" xmlns="http://www.w3.org/2000/svg" xmlns:xlink="http://www.w3.org/1999/xlink" viewBox="0 0 278.14 85.55"><defs><style>.cls-1{fill:url(#Degradado_sin_nombre_10);}.cls-2{fill:none;stroke-miterlimit:10;stroke-width:0.6px;stroke:url(#Degradado_sin_nombre_8);}</style><linearGradient id="Degradado_sin_nombre_10" x1="1056.58" y1="457.42" x2="1221.98" y2="622.82" gradientTransform="matrix(1, 0, -0.38, 1, 28.83, 0)" gradientUnits="userSpaceOnUse"><stop offset="0" stop-color="#00fdff"/><stop offset="0.04" stop-color="#22c3ff"/><stop offset="0.08" stop-color="#4190ff"/><stop offset="0.12" stop-color="#5b64ff"/><stop offset="0.16" stop-color="#7040ff"/><stop offset="0.2" stop-color="#8124ff"/><stop offset="0.24" stop-color="#8d10ff"/><stop offset="0.28" stop-color="#9404ff"/><stop offset="0.32" stop-color="#9600ff"/><stop offset="0.65" stop-color="#00fdff"/><stop offset="0.69" stop-color="#22c3ff"/><stop offset="0.73" stop-color="#4190ff"/><stop offset="0.78" stop-color="#5b64ff"/><stop offset="0.82" stop-color="#7040ff"/><stop offset="0.87" stop-color="#8124ff"/><stop offset="0.91" stop-color="#8d10ff"/><stop offset="0.96" stop-color="#9404ff"/><stop offset="1" stop-color="#9600ff"/></linearGradient><linearGradient id="Degradado_sin_nombre_8" x1="6466.39" y1="-2561.73" x2="6614.35" y2="-2413.77" gradientTransform="matrix(-0.38, 1, -1, 0, 165.92, -6497.52)" gradientUnits="userSpaceOnUse"><stop offset="0" stop-color="#00fdff"/><stop offset="0.3" stop-color="#2bb5ff"/><stop offset="0.99" stop-color="#9502ff"/><stop offset="1" stop-color="#9600ff"/></linearGradient></defs><path class="cls-1" d="M854.26,497.35,821.37,582.9h245.25l32.89-85.55Zm208.45,81.82H828.14l30-78.1h234.57Z" transform="translate(-821.37 -497.35)"/><polyline class="cls-2" points="264.44 6.8 204.43 6.8 195.78 11.56 106.37 11.56 101.37 6.8 41.36 6.8 34.52 24.6 39.51 29.36 29.2 56.19 20.54 60.95 13.7 78.74 73.71 78.74 82.37 73.99 171.77 73.99 176.77 78.74 236.78 78.74 243.63 60.95 238.63 56.19 248.95 29.36 257.6 24.6 264.44 6.8"/></svg>