<svg xmlns="http://www.w3.org/2000/svg" fill-rule="evenodd" stroke-linejoin="round" stroke-miterlimit="2" clip-rule="evenodd" viewBox="0 0 32 32"><path fill="#595bd4" d="M28 11a6.999 6.999 0 0 0-7-7H11a6.999 6.999 0 0 0-7 7v10a6.999 6.999 0 0 0 7 7h10a6.999 6.999 0 0 0 7-7V11Zm-2 0v10a5.004 5.004 0 0 1-1.464 3.536A5.004 5.004 0 0 1 21 26H11a5.004 5.004 0 0 1-3.536-1.464A5.004 5.004 0 0 1 6 21V11c0-1.326.527-2.598 1.464-3.536A5.004 5.004 0 0 1 11 6h10c1.326 0 2.598.527 3.536 1.464A5.004 5.004 0 0 1 26 11Zm-15.994 7.994H9a1 1 0 0 0 0 2h1.006V22a1 1 0 0 0 2 0v-1.006h1.006a1 1 0 0 0 0-2h-1.006v-1.006a1 1 0 0 0-2 0v1.006Zm8.982 3.994H23a1 1 0 0 0 0-2h-4.012a1 1 0 0 0 0 2Zm0-4H23a1 1 0 0 0 0-2h-4.012a1 1 0 0 0 0 2Zm2.006-8.402-1.299-1.299a1 1 0 0 0-1.414 1.414L19.58 12l-1.299 1.299a1 1 0 0 0 1.414 1.414l1.299-1.299 1.299 1.299a1 1 0 0 0 1.414-1.414L22.408 12l1.299-1.299a1 1 0 0 0-1.414-1.414l-1.299 1.299ZM9 12.994h4.012a1 1 0 0 0 0-2H9a1 1 0 0 0 0 2Z" class="color000000 svgShape"/></svg>