<svg id="Layer_1" data-name="Layer 1" xmlns="http://www.w3.org/2000/svg" xmlns:xlink="http://www.w3.org/1999/xlink" viewBox="0 0 127.37 167.64"><defs><style>.cls-1{mask:url(#mask);}.cls-10,.cls-12,.cls-14,.cls-16,.cls-2,.cls-4,.cls-6,.cls-8{mix-blend-mode:multiply;}.cls-2{fill:url(#radial-gradient);}.cls-3{mask:url(#mask-2);}.cls-4{fill:url(#radial-gradient-2);}.cls-5{mask:url(#mask-5);}.cls-6{fill:url(#radial-gradient-5);}.cls-7{mask:url(#mask-10);}.cls-8{fill:url(#radial-gradient-10);}.cls-9{mask:url(#mask-14);}.cls-10{fill:url(#radial-gradient-14);}.cls-11{mask:url(#mask-19);}.cls-12{fill:url(#radial-gradient-19);}.cls-13{mask:url(#mask-23);}.cls-14{fill:url(#radial-gradient-23);}.cls-15{mask:url(#mask-27);}.cls-16{fill:url(#radial-gradient-27);}.cls-17{fill:#1b1464;}.cls-17,.cls-25,.cls-35{opacity:0.65;}.cls-18{fill:none;stroke:#f0f;stroke-miterlimit:10;stroke-width:2px;}.cls-19{font-size:7.9px;font-family:UTM-Banque, UTM Banque;}.cls-19,.cls-21,.cls-25,.cls-26,.cls-27{fill:#f0f;}.cls-20{fill:url(#radial-gradient-33);}.cls-22{fill:url(#radial-gradient-34);}.cls-23{fill:url(#radial-gradient-35);}.cls-24{opacity:0.1;}.cls-26{opacity:0.8;}.cls-27{opacity:0.5;}.cls-28{fill:url(#radial-gradient-36);}.cls-29{fill:url(#radial-gradient-37);}.cls-30{fill:url(#radial-gradient-38);}.cls-31{opacity:0.9;}.cls-32{fill:url(#radial-gradient-39);}.cls-33{fill:url(#radial-gradient-40);}.cls-34{fill:url(#radial-gradient-41);}.cls-36{fill:url(#radial-gradient-42);}.cls-37{fill:url(#radial-gradient-43);}.cls-38{fill:url(#radial-gradient-44);}.cls-39{fill:url(#radial-gradient-45);}.cls-40{fill:url(#radial-gradient-46);}.cls-41{fill:url(#radial-gradient-47);}.cls-42{fill:url(#radial-gradient-48);}.cls-43{fill:url(#radial-gradient-49);}.cls-44{fill:url(#radial-gradient-50);}.cls-45{fill:url(#radial-gradient-51);}.cls-46{fill:url(#radial-gradient-52);}.cls-47{fill:url(#radial-gradient-53);}.cls-48{fill:url(#radial-gradient-54);}.cls-49{fill:url(#radial-gradient-55);}.cls-50{fill:url(#radial-gradient-56);}.cls-51{fill:url(#radial-gradient-57);}.cls-52{fill:url(#radial-gradient-58);}.cls-53{fill:url(#radial-gradient-59);}.cls-54{fill:url(#radial-gradient-60);}.cls-55{fill:url(#radial-gradient-61);}.cls-56{fill:url(#radial-gradient-62);}.cls-57{fill:url(#radial-gradient-63);}.cls-58{fill:url(#radial-gradient-64);}.cls-59{fill:url(#radial-gradient-65);}.cls-60{fill:url(#radial-gradient-66);}.cls-61{fill:url(#radial-gradient-67);}.cls-62{fill:url(#radial-gradient-68);}.cls-63{opacity:0.75;}.cls-64{fill:url(#radial-gradient-69);}.cls-65{fill:url(#radial-gradient-70);}.cls-66{fill:url(#radial-gradient-71);}.cls-67{fill:url(#radial-gradient-72);}.cls-68{fill:url(#radial-gradient-73);}.cls-69{fill:url(#radial-gradient-74);}.cls-70{fill:url(#radial-gradient-75);}.cls-71{fill:url(#radial-gradient-76);}.cls-72{fill:url(#radial-gradient-77);}.cls-73{fill:url(#radial-gradient-78);}.cls-74{fill:url(#radial-gradient-79);}.cls-75{fill:url(#radial-gradient-80);}.cls-76{fill:url(#radial-gradient-81);}.cls-77{fill:url(#radial-gradient-82);}.cls-78{fill:url(#radial-gradient-83);}.cls-79{fill:url(#radial-gradient-84);}.cls-80{fill:url(#radial-gradient-85);}.cls-81{fill:url(#radial-gradient-86);}.cls-82{fill:url(#radial-gradient-87);}.cls-83{fill:url(#radial-gradient-88);}.cls-84{fill:url(#radial-gradient-89);}.cls-85{mask:url(#mask-33);}.cls-86{mask:url(#mask-37);}.cls-87{mask:url(#mask-41);}.cls-88{mask:url(#mask-45);}.cls-89{mask:url(#mask-49);}.cls-90{mask:url(#mask-53);}.cls-91{mask:url(#mask-57);}.cls-92{mask:url(#mask-61);}.cls-93{filter:url(#luminosity-noclip-27);}.cls-94{filter:url(#luminosity-noclip-23);}.cls-95{filter:url(#luminosity-noclip-19);}.cls-96{filter:url(#luminosity-noclip-14);}.cls-97{filter:url(#luminosity-noclip-10);}.cls-98{filter:url(#luminosity-noclip-5);}.cls-99{filter:url(#luminosity-noclip-2);}.cls-100{filter:url(#luminosity-noclip);}</style><filter id="luminosity-noclip" x="904.52" y="-8732" width="57.42" height="32766" filterUnits="userSpaceOnUse" color-interpolation-filters="sRGB"><feFlood flood-color="#fff" result="bg"/><feBlend in="SourceGraphic" in2="bg"/></filter><mask id="mask" x="904.52" y="-8732" width="57.42" height="32766" maskUnits="userSpaceOnUse"><g class="cls-100"/></mask><radialGradient id="radial-gradient" cx="622.42" cy="-601.72" r="11.68" gradientTransform="matrix(2.45, 0.17, 0.15, -2.45, -504.27, -1024.14)" gradientUnits="userSpaceOnUse"><stop offset="0" stop-color="#fff"/><stop offset="0.09" stop-color="#f9f9f9"/><stop offset="0.22" stop-color="#e8e8e8"/><stop offset="0.36" stop-color="#ccc"/><stop offset="0.52" stop-color="#a5a5a5"/><stop offset="0.68" stop-color="#737373"/><stop offset="0.86" stop-color="#373737"/><stop offset="1"/></radialGradient><filter id="luminosity-noclip-2" x="921.16" y="-8732" width="24.13" height="32766" filterUnits="userSpaceOnUse" color-interpolation-filters="sRGB"><feFlood flood-color="#fff" result="bg"/><feBlend in="SourceGraphic" in2="bg"/></filter><mask id="mask-2" x="921.16" y="-8732" width="24.13" height="32766" maskUnits="userSpaceOnUse"><g class="cls-99"/></mask><radialGradient id="radial-gradient-2" cx="555.88" cy="-164.63" r="11.68" gradientTransform="matrix(1.03, 0.07, 0.06, -1.04, 370.26, 343.61)" xlink:href="#radial-gradient"/><filter id="luminosity-noclip-5" x="886.25" y="-8732" width="57.42" height="32766" filterUnits="userSpaceOnUse" color-interpolation-filters="sRGB"><feFlood flood-color="#fff" result="bg"/><feBlend in="SourceGraphic" in2="bg"/></filter><mask id="mask-5" x="886.25" y="-8732" width="57.42" height="32766" maskUnits="userSpaceOnUse"><g class="cls-98"/></mask><radialGradient id="radial-gradient-5" cx="615.1" cy="-603.77" r="11.68" xlink:href="#radial-gradient"/><filter id="luminosity-noclip-10" x="900.39" y="-8732" width="24.13" height="32766" filterUnits="userSpaceOnUse" color-interpolation-filters="sRGB"><feFlood flood-color="#fff" result="bg"/><feBlend in="SourceGraphic" in2="bg"/></filter><mask id="mask-10" x="900.39" y="-8732" width="24.13" height="32766" maskUnits="userSpaceOnUse"><g class="cls-97"/></mask><radialGradient id="radial-gradient-10" cx="535.95" cy="-168.21" r="11.68" gradientTransform="matrix(1.03, 0.07, 0.06, -1.04, 370.26, 343.61)" xlink:href="#radial-gradient"/><filter id="luminosity-noclip-14" x="881.74" y="-8732" width="47.6" height="32766" filterUnits="userSpaceOnUse" color-interpolation-filters="sRGB"><feFlood flood-color="#fff" result="bg"/><feBlend in="SourceGraphic" in2="bg"/></filter><mask id="mask-14" x="881.74" y="-8732" width="47.6" height="32766" maskUnits="userSpaceOnUse"><g class="cls-96"/></mask><radialGradient id="radial-gradient-14" cx="485.13" cy="-605.79" r="12.31" gradientTransform="matrix(1.93, 0.14, 0.12, -1.93, 40.48, -723.51)" xlink:href="#radial-gradient"/><filter id="luminosity-noclip-19" x="895.53" y="-8732" width="20" height="32766" filterUnits="userSpaceOnUse" color-interpolation-filters="sRGB"><feFlood flood-color="#fff" result="bg"/><feBlend in="SourceGraphic" in2="bg"/></filter><mask id="mask-19" x="895.53" y="-8732" width="20" height="32766" maskUnits="userSpaceOnUse"><g class="cls-95"/></mask><radialGradient id="radial-gradient-19" cx="230.03" cy="-173.38" r="12.31" gradientTransform="matrix(0.81, 0.06, 0.05, -0.82, 727.44, 353.11)" xlink:href="#radial-gradient"/><filter id="luminosity-noclip-23" x="860.03" y="-8732" width="57.42" height="32766" filterUnits="userSpaceOnUse" color-interpolation-filters="sRGB"><feFlood flood-color="#fff" result="bg"/><feBlend in="SourceGraphic" in2="bg"/></filter><mask id="mask-23" x="860.03" y="-8732" width="57.42" height="32766" maskUnits="userSpaceOnUse"><g class="cls-94"/></mask><radialGradient id="radial-gradient-23" cx="604.21" cy="-600.45" r="11.68" xlink:href="#radial-gradient"/><filter id="luminosity-noclip-27" x="876.68" y="-8732" width="24.13" height="32766" filterUnits="userSpaceOnUse" color-interpolation-filters="sRGB"><feFlood flood-color="#fff" result="bg"/><feBlend in="SourceGraphic" in2="bg"/></filter><mask id="mask-27" x="876.68" y="-8732" width="24.13" height="32766" maskUnits="userSpaceOnUse"><g class="cls-93"/></mask><radialGradient id="radial-gradient-27" cx="512.56" cy="-161.72" r="11.68" gradientTransform="matrix(1.03, 0.07, 0.06, -1.04, 370.26, 343.61)" xlink:href="#radial-gradient"/><radialGradient id="radial-gradient-33" cx="-5566.72" cy="8279.49" r="25.77" gradientTransform="matrix(0.13, -0.23, -0.23, -0.13, 2690.22, -74.61)" gradientUnits="userSpaceOnUse"><stop offset="0" stop-color="#004c7e"/><stop offset="0.15" stop-color="#003d6e"/><stop offset="0.44" stop-color="#002252"/><stop offset="0.62" stop-color="#001848"/><stop offset="1" stop-color="#000037"/></radialGradient><radialGradient id="radial-gradient-34" cx="-5603.27" cy="8279.49" r="25.77" xlink:href="#radial-gradient-33"/><radialGradient id="radial-gradient-35" cx="-5584.99" cy="8311.02" r="29.85" xlink:href="#radial-gradient-33"/><radialGradient id="radial-gradient-36" cx="-5628.69" cy="8295.23" r="25.77" xlink:href="#radial-gradient-33"/><radialGradient id="radial-gradient-37" cx="-5665.24" cy="8295.22" r="25.77" xlink:href="#radial-gradient-33"/><radialGradient id="radial-gradient-38" cx="-5646.97" cy="8326.75" r="29.85" xlink:href="#radial-gradient-33"/><radialGradient id="radial-gradient-39" cx="-5657.03" cy="8432.9" r="25.77" xlink:href="#radial-gradient-33"/><radialGradient id="radial-gradient-40" cx="-5693.59" cy="8432.9" r="25.77" xlink:href="#radial-gradient-33"/><radialGradient id="radial-gradient-41" cx="-5675.31" cy="8464.43" r="29.85" xlink:href="#radial-gradient-33"/><radialGradient id="radial-gradient-42" cx="-5657.03" cy="8381.8" r="25.77" xlink:href="#radial-gradient-33"/><radialGradient id="radial-gradient-43" cx="-5693.58" cy="8381.79" r="25.77" xlink:href="#radial-gradient-33"/><radialGradient id="radial-gradient-44" cx="-5675.31" cy="8413.32" r="29.85" xlink:href="#radial-gradient-33"/><radialGradient id="radial-gradient-45" cx="-5657.03" cy="8330.69" r="25.77" xlink:href="#radial-gradient-33"/><radialGradient id="radial-gradient-46" cx="-5693.58" cy="8330.69" r="25.77" xlink:href="#radial-gradient-33"/><radialGradient id="radial-gradient-47" cx="-5675.3" cy="8362.22" r="29.85" xlink:href="#radial-gradient-33"/><radialGradient id="radial-gradient-48" cx="-5479.35" cy="8432.08" r="25.77" xlink:href="#radial-gradient-33"/><radialGradient id="radial-gradient-49" cx="-5515.9" cy="8432.07" r="25.77" xlink:href="#radial-gradient-33"/><radialGradient id="radial-gradient-50" cx="-5497.63" cy="8463.6" r="29.85" xlink:href="#radial-gradient-33"/><radialGradient id="radial-gradient-51" cx="-5512.94" cy="8285.87" r="25.77" xlink:href="#radial-gradient-33"/><radialGradient id="radial-gradient-52" cx="-5549.5" cy="8285.86" r="25.77" xlink:href="#radial-gradient-33"/><radialGradient id="radial-gradient-53" cx="-5531.22" cy="8317.4" r="29.85" xlink:href="#radial-gradient-33"/><radialGradient id="radial-gradient-54" cx="-5568.23" cy="8330.45" r="25.77" xlink:href="#radial-gradient-33"/><radialGradient id="radial-gradient-55" cx="-5604.79" cy="8330.45" r="25.77" xlink:href="#radial-gradient-33"/><radialGradient id="radial-gradient-56" cx="-5586.51" cy="8361.98" r="29.85" xlink:href="#radial-gradient-33"/><radialGradient id="radial-gradient-57" cx="-5623.16" cy="8463.62" r="25.77" xlink:href="#radial-gradient-33"/><radialGradient id="radial-gradient-58" cx="-5659.72" cy="8463.62" r="25.77" xlink:href="#radial-gradient-33"/><radialGradient id="radial-gradient-59" cx="-5641.44" cy="8495.15" r="29.85" xlink:href="#radial-gradient-33"/><radialGradient id="radial-gradient-60" cx="-5613.34" cy="8407.2" r="25.77" xlink:href="#radial-gradient-33"/><radialGradient id="radial-gradient-61" cx="-5649.89" cy="8407.2" r="25.77" xlink:href="#radial-gradient-33"/><radialGradient id="radial-gradient-62" cx="-5631.62" cy="8438.73" r="29.85" xlink:href="#radial-gradient-33"/><radialGradient id="radial-gradient-63" cx="-5613.34" cy="8333.32" r="25.77" xlink:href="#radial-gradient-33"/><radialGradient id="radial-gradient-64" cx="-5649.89" cy="8333.31" r="25.77" xlink:href="#radial-gradient-33"/><radialGradient id="radial-gradient-65" cx="-5631.62" cy="8364.84" r="29.85" xlink:href="#radial-gradient-33"/><radialGradient id="radial-gradient-66" cx="-5466.66" cy="8373.2" r="25.77" xlink:href="#radial-gradient-33"/><radialGradient id="radial-gradient-67" cx="-5503.22" cy="8373.2" r="25.77" xlink:href="#radial-gradient-33"/><radialGradient id="radial-gradient-68" cx="-5484.94" cy="8404.73" r="29.85" xlink:href="#radial-gradient-33"/><radialGradient id="radial-gradient-69" cx="-5479.34" cy="8329.87" r="25.77" xlink:href="#radial-gradient-33"/><radialGradient id="radial-gradient-70" cx="-5515.9" cy="8329.87" r="25.77" xlink:href="#radial-gradient-33"/><radialGradient id="radial-gradient-71" cx="-5497.62" cy="8361.4" r="29.85" xlink:href="#radial-gradient-33"/><radialGradient id="radial-gradient-72" cx="-5524.55" cy="8458.06" r="25.77" xlink:href="#radial-gradient-33"/><radialGradient id="radial-gradient-73" cx="-5561.11" cy="8458.06" r="25.77" xlink:href="#radial-gradient-33"/><radialGradient id="radial-gradient-74" cx="-5542.83" cy="8489.59" r="29.85" xlink:href="#radial-gradient-33"/><radialGradient id="radial-gradient-75" cx="-5524.55" cy="8406.95" r="25.77" xlink:href="#radial-gradient-33"/><radialGradient id="radial-gradient-76" cx="-5561.1" cy="8406.95" r="25.77" xlink:href="#radial-gradient-33"/><radialGradient id="radial-gradient-77" cx="-5542.83" cy="8438.48" r="29.85" xlink:href="#radial-gradient-33"/><radialGradient id="radial-gradient-78" cx="-5524.55" cy="8355.85" r="25.77" xlink:href="#radial-gradient-33"/><radialGradient id="radial-gradient-79" cx="-5561.1" cy="8355.85" r="25.77" xlink:href="#radial-gradient-33"/><radialGradient id="radial-gradient-80" cx="-5542.82" cy="8387.38" r="29.85" xlink:href="#radial-gradient-33"/><radialGradient id="radial-gradient-81" cx="-5557.98" cy="8490.13" r="25.77" xlink:href="#radial-gradient-33"/><radialGradient id="radial-gradient-82" cx="-5594.53" cy="8490.13" r="25.77" xlink:href="#radial-gradient-33"/><radialGradient id="radial-gradient-83" cx="-5576.26" cy="8521.66" r="29.85" xlink:href="#radial-gradient-33"/><radialGradient id="radial-gradient-84" cx="-5569.66" cy="8432.6" r="25.77" xlink:href="#radial-gradient-33"/><radialGradient id="radial-gradient-85" cx="-5606.21" cy="8432.6" r="25.77" xlink:href="#radial-gradient-33"/><radialGradient id="radial-gradient-86" cx="-5587.94" cy="8464.13" r="29.85" xlink:href="#radial-gradient-33"/><radialGradient id="radial-gradient-87" cx="-5569.65" cy="8369.96" r="25.77" xlink:href="#radial-gradient-33"/><radialGradient id="radial-gradient-88" cx="-5606.2" cy="8369.96" r="25.77" xlink:href="#radial-gradient-33"/><radialGradient id="radial-gradient-89" cx="-5587.93" cy="8401.49" r="29.85" xlink:href="#radial-gradient-33"/><mask id="mask-33" x="60.46" y="71.29" width="57.42" height="57.36" maskUnits="userSpaceOnUse"><g transform="translate(-844.06 -457.11)"><g class="cls-1"><path class="cls-2" d="M961.89,559.08A29,29,0,0,0,935,528.47a28.37,28.37,0,0,0-30.39,26.6,29,29,0,0,0,26.92,30.62A28.37,28.37,0,0,0,961.89,559.08Z"/></g></g></mask><filter id="luminosity-noclip-33" x="904.52" y="528.4" width="57.42" height="57.36" filterUnits="userSpaceOnUse" color-interpolation-filters="sRGB"><feFlood flood-color="#fff" result="bg"/><feBlend in="SourceGraphic" in2="bg"/></filter><mask id="mask-37" x="77.1" y="87.74" width="24.13" height="24.47" maskUnits="userSpaceOnUse"><g transform="translate(-844.06 -457.11)"><g class="cls-3"><path class="cls-4" d="M945.27,558A12.34,12.34,0,0,0,934,544.88a12,12,0,0,0-12.77,11.33,12.35,12.35,0,0,0,11.33,13.07A12,12,0,0,0,945.27,558Z"/></g></g></mask><filter id="luminosity-noclip-36" x="921.16" y="544.85" width="24.13" height="24.47" filterUnits="userSpaceOnUse" color-interpolation-filters="sRGB"><feFlood flood-color="#fff" result="bg"/><feBlend in="SourceGraphic" in2="bg"/></filter><mask id="mask-41" x="42.19" y="75.05" width="57.42" height="57.36" maskUnits="userSpaceOnUse"><g transform="translate(-844.06 -457.11)"><g class="cls-5"><path class="cls-6" d="M943.62,562.84a29,29,0,0,0-26.92-30.61,28.36,28.36,0,0,0-30.39,26.6,29,29,0,0,0,26.92,30.62A28.36,28.36,0,0,0,943.62,562.84Z"/></g></g></mask><filter id="luminosity-noclip-39" x="886.25" y="532.16" width="57.42" height="57.36" filterUnits="userSpaceOnUse" color-interpolation-filters="sRGB"><feFlood flood-color="#fff" result="bg"/><feBlend in="SourceGraphic" in2="bg"/></filter><mask id="mask-45" x="56.33" y="89.99" width="24.13" height="24.47" maskUnits="userSpaceOnUse"><g transform="translate(-844.06 -457.11)"><g class="cls-7"><path class="cls-8" d="M924.5,560.2a12.34,12.34,0,0,0-11.32-13.07,12,12,0,0,0-12.77,11.34,12.35,12.35,0,0,0,11.33,13.07A12,12,0,0,0,924.5,560.2Z"/></g></g></mask><filter id="luminosity-noclip-42" x="900.39" y="547.1" width="24.13" height="24.47" filterUnits="userSpaceOnUse" color-interpolation-filters="sRGB"><feFlood flood-color="#fff" result="bg"/><feBlend in="SourceGraphic" in2="bg"/></filter><mask id="mask-49" x="37.68" y="28.15" width="47.6" height="47.54" maskUnits="userSpaceOnUse"><g transform="translate(-844.06 -457.11)"><g class="cls-9"><path class="cls-10" d="M929.29,510.69A24.06,24.06,0,0,0,907,485.32a23.52,23.52,0,0,0-25.19,22.05,24.07,24.07,0,0,0,22.31,25.38A23.52,23.52,0,0,0,929.29,510.69Z"/></g></g></mask><filter id="luminosity-noclip-45" x="881.74" y="485.26" width="47.6" height="47.54" filterUnits="userSpaceOnUse" color-interpolation-filters="sRGB"><feFlood flood-color="#fff" result="bg"/><feBlend in="SourceGraphic" in2="bg"/></filter><mask id="mask-53" x="51.48" y="41.78" width="20" height="20.28" maskUnits="userSpaceOnUse"><g transform="translate(-844.06 -457.11)"><g class="cls-11"><path class="cls-12" d="M915.52,509.75a10.23,10.23,0,0,0-9.39-10.83,9.92,9.92,0,0,0-10.58,9.4,10.24,10.24,0,0,0,9.39,10.83A9.92,9.92,0,0,0,915.52,509.75Z"/></g></g></mask><filter id="luminosity-noclip-48" x="895.53" y="498.9" width="20" height="20.28" filterUnits="userSpaceOnUse" color-interpolation-filters="sRGB"><feFlood flood-color="#fff" result="bg"/><feBlend in="SourceGraphic" in2="bg"/></filter><mask id="mask-57" x="15.97" y="65.02" width="57.42" height="57.36" maskUnits="userSpaceOnUse"><g transform="translate(-844.06 -457.11)"><g class="cls-13"><path class="cls-14" d="M917.4,552.81a29,29,0,0,0-26.92-30.61,28.38,28.38,0,0,0-30.4,26.6A29,29,0,0,0,887,579.42,28.36,28.36,0,0,0,917.4,552.81Z"/></g></g></mask><filter id="luminosity-noclip-51" x="860.03" y="522.13" width="57.42" height="57.36" filterUnits="userSpaceOnUse" color-interpolation-filters="sRGB"><feFlood flood-color="#fff" result="bg"/><feBlend in="SourceGraphic" in2="bg"/></filter><mask id="mask-61" x="32.62" y="81.47" width="24.13" height="24.47" maskUnits="userSpaceOnUse"><g transform="translate(-844.06 -457.11)"><g class="cls-15"><path class="cls-16" d="M900.79,551.68a12.35,12.35,0,0,0-11.33-13.07A12,12,0,0,0,876.7,550,12.34,12.34,0,0,0,888,563,12,12,0,0,0,900.79,551.68Z"/></g></g></mask><filter id="luminosity-noclip-54" x="876.68" y="538.58" width="24.13" height="24.47" filterUnits="userSpaceOnUse" color-interpolation-filters="sRGB"><feFlood flood-color="#fff" result="bg"/><feBlend in="SourceGraphic" in2="bg"/></filter></defs><rect class="cls-17" x="1.03" y="1.03" width="125.69" height="165.57" rx="12"/><path class="cls-18" d="M883.78,458.11H849.64a4.58,4.58,0,0,0-4.58,4.58V532" transform="translate(-844.06 -457.11)"/><path class="cls-18" d="M931.71,623.75h34.14a4.58,4.58,0,0,0,4.58-4.58V549.9" transform="translate(-844.06 -457.11)"/><text class="cls-19" transform="translate(20.36 145.9)">NFT KING KETHER</text><polygon class="cls-20" points="84.49 97.18 84.53 86.16 94 91.67 93.97 102.69 84.49 97.18"/><path class="cls-21" d="M928.59,543.21h0l9.47,5.51a.05.05,0,0,1,0,0l0,11a.07.07,0,0,1,0,.05H938l-9.47-5.51a.05.05,0,0,1,0-.05l0-11s0,0,0-.06Zm9.41,5.61-9.35-5.44,0,10.88L938,559.7Z" transform="translate(-844.06 -457.11)"/><polygon class="cls-22" points="84.49 97.18 74.92 102.66 84.4 108.17 93.97 102.69 84.49 97.18"/><path class="cls-21" d="M928.55,554.23h0l9.48,5.51s0,0,0,.06a.07.07,0,0,1,0,.05l-9.56,5.48h-.07L919,559.83a.05.05,0,0,1,0-.05.06.06,0,0,1,0-.06l9.57-5.48Zm9.35,5.58-9.35-5.44-9.44,5.41,9.34,5.44Z" transform="translate(-844.06 -457.11)"/><polygon class="cls-23" points="74.96 91.64 74.92 102.66 84.49 97.18 84.53 86.16 74.96 91.64"/><path class="cls-21" d="M928.59,543.21h0a.05.05,0,0,1,0,0l0,11a.05.05,0,0,1,0,.05L919,559.83H919a.05.05,0,0,1,0-.05l0-11a.09.09,0,0,1,0-.06l9.57-5.48Zm-.1,11,0-10.88-9.44,5.4,0,10.89Z" transform="translate(-844.06 -457.11)"/><g class="cls-24"><polygon class="cls-21" points="74.92 102.66 74.96 91.64 84.43 97.15 84.4 108.17 74.92 102.66"/><path class="cls-21" d="M919,548.69h0l9.47,5.51a.05.05,0,0,1,0,0l0,11a.09.09,0,0,1,0,.05h-.07L919,559.83a.05.05,0,0,1,0-.05l0-11a.09.09,0,0,1,0-.06Zm9.41,5.61-9.35-5.44,0,10.88,9.35,5.44Z" transform="translate(-844.06 -457.11)"/></g><g class="cls-24"><polygon class="cls-21" points="84.53 86.16 74.96 91.64 84.43 97.15 94 91.67 84.53 86.16"/><path class="cls-21" d="M928.59,543.21h0l9.47,5.51a.06.06,0,0,1,0,.1l-9.57,5.48a0,0,0,0,1-.06,0L919,548.8a.05.05,0,0,1,0,0,.09.09,0,0,1,0-.06l9.57-5.48Zm9.34,5.57-9.34-5.44-9.45,5.41,9.35,5.44Z" transform="translate(-844.06 -457.11)"/></g><polygon class="cls-21" points="84.43 97.15 84.4 108.17 93.97 102.69 94 91.67 84.43 97.15"/><path class="cls-21" d="M938.06,548.72h0a.05.05,0,0,1,0,0l0,11a.07.07,0,0,1,0,.05l-9.56,5.48h-.07a.05.05,0,0,1,0-.05l0-11a.05.05,0,0,1,0,0l9.57-5.48Zm-.1,11,0-10.88-9.45,5.41,0,10.88Z" transform="translate(-844.06 -457.11)"/><path class="cls-25" d="M919,548.74h0l9.47,5.52a.05.05,0,0,1,0,0l0,11a.05.05,0,0,1,0,0h-.06l-9.48-5.51a.06.06,0,0,1,0-.06l0-11a.07.07,0,0,1,0-.06Zm9.41,5.6-9.35-5.43,0,10.88,9.34,5.44Z" transform="translate(-844.06 -457.11)"/><path class="cls-26" d="M928.56,543.25h0l9.47,5.51a.09.09,0,0,1,0,.06.05.05,0,0,1,0,0l-9.57,5.48h-.06L919,548.85a.05.05,0,0,1,0-.05.07.07,0,0,1,0-.06l9.57-5.48Zm9.35,5.58-9.35-5.44-9.45,5.41,9.35,5.44Z" transform="translate(-844.06 -457.11)"/><path class="cls-27" d="M938,548.77h0a.09.09,0,0,1,0,.06l0,11a.05.05,0,0,1,0,0l-9.57,5.48h-.06a.07.07,0,0,1,0,0l0-11a.09.09,0,0,1,0-.06l9.57-5.48Zm-.1,11.05,0-10.88-9.45,5.4,0,10.89Z" transform="translate(-844.06 -457.11)"/><polygon class="cls-28" points="72.8 109.11 72.83 98.08 82.3 103.59 82.27 114.62 72.8 109.11"/><path class="cls-21" d="M916.89,555.13h0l9.47,5.51a.06.06,0,0,1,0,.06l0,11a.06.06,0,0,1,0,.06h-.06l-9.48-5.51a.07.07,0,0,1,0-.06l0-11a.05.05,0,0,1,0-.05Zm9.41,5.61L917,555.3l0,10.89,9.35,5.44Z" transform="translate(-844.06 -457.11)"/><polygon class="cls-29" points="72.8 109.11 63.23 114.59 72.7 120.1 82.27 114.62 72.8 109.11"/><path class="cls-21" d="M916.85,566.16h0l9.47,5.51a.05.05,0,0,1,0,.05.06.06,0,0,1,0,.06l-9.57,5.48h-.06l-9.48-5.51a.07.07,0,0,1,0-.06.09.09,0,0,1,0-.05l9.57-5.48Zm9.35,5.57-9.35-5.44-9.44,5.41,9.35,5.44Z" transform="translate(-844.06 -457.11)"/><polygon class="cls-30" points="63.26 103.56 63.23 114.59 72.8 109.11 72.83 98.08 63.26 103.56"/><path class="cls-21" d="M916.89,555.13h0a.06.06,0,0,1,0,.06l0,11a.11.11,0,0,1,0,.06l-9.57,5.48h-.07a.11.11,0,0,1,0-.06l0-11a.06.06,0,0,1,0-.06l9.57-5.48Zm-.1,11.06,0-10.89-9.45,5.41,0,10.89Z" transform="translate(-844.06 -457.11)"/><g class="cls-24"><polygon class="cls-21" points="63.23 114.59 63.26 103.56 72.73 109.07 72.7 120.1 63.23 114.59"/><path class="cls-21" d="M907.32,560.61h0l9.47,5.51a.08.08,0,0,1,0,.06l0,11a.06.06,0,0,1,0,.06h-.06l-9.48-5.51a.11.11,0,0,1,0-.06l0-11a.06.06,0,0,1,0-.06Zm9.41,5.61-9.35-5.44,0,10.89,9.35,5.44Z" transform="translate(-844.06 -457.11)"/></g><g class="cls-24"><polygon class="cls-21" points="72.83 98.08 63.26 103.56 72.73 109.07 82.3 103.59 72.83 98.08"/><path class="cls-21" d="M916.89,555.13h0l9.47,5.51a.06.06,0,0,1,0,.06.05.05,0,0,1,0,0l-9.57,5.48h-.06l-9.47-5.51a.05.05,0,0,1,0-.05.06.06,0,0,1,0-.06l9.57-5.48Zm9.35,5.58-9.35-5.44-9.44,5.41,9.34,5.44Z" transform="translate(-844.06 -457.11)"/></g><g class="cls-31"><polygon class="cls-21" points="72.73 109.07 72.7 120.1 82.27 114.62 82.3 103.59 72.73 109.07"/><path class="cls-21" d="M926.36,560.64h0a.06.06,0,0,1,0,.06l0,11a.06.06,0,0,1,0,.06l-9.57,5.48h-.06a.06.06,0,0,1,0-.06l0-11a.06.06,0,0,1,0-.06l9.57-5.48Zm-.1,11.06,0-10.89-9.44,5.41,0,10.89Z" transform="translate(-844.06 -457.11)"/></g><path class="cls-25" d="M907.29,560.66h0l9.48,5.51a.09.09,0,0,1,0,.06l0,11a.07.07,0,0,1,0,.06h-.06l-9.47-5.52a.07.07,0,0,1,0,0l0-11a.05.05,0,0,1,0-.05Zm9.41,5.61-9.35-5.44,0,10.88,9.35,5.44Z" transform="translate(-844.06 -457.11)"/><path class="cls-26" d="M916.86,555.18h0l9.48,5.51a.07.07,0,0,1,0,.11l-9.57,5.48h-.07l-9.47-5.51a.06.06,0,0,1,0-.06.05.05,0,0,1,0-.05l9.57-5.48Zm9.35,5.57-9.35-5.43-9.44,5.4,9.34,5.44Z" transform="translate(-844.06 -457.11)"/><path class="cls-27" d="M926.33,560.69h0a.09.09,0,0,1,0,0l0,11a.07.07,0,0,1,0,.06l-9.57,5.48h-.06a.07.07,0,0,1,0-.06l0-11a.05.05,0,0,1,0-.05l9.57-5.48Zm-.09,11.06,0-10.89-9.44,5.41,0,10.89Z" transform="translate(-844.06 -457.11)"/><polygon class="cls-32" points="37.98 97.42 38.02 86.39 47.49 91.9 47.46 102.93 37.98 97.42"/><path class="cls-21" d="M882.08,543.44h0l9.47,5.51a.06.06,0,0,1,0,.06l0,11a.06.06,0,0,1,0,.06h-.07L882,554.59a.09.09,0,0,1,0-.06l0-11a.05.05,0,0,1,0,0Zm9.41,5.61-9.35-5.44,0,10.89,9.34,5.44Z" transform="translate(-844.06 -457.11)"/><polygon class="cls-33" points="37.98 97.42 28.41 102.9 37.89 108.41 47.46 102.93 37.98 97.42"/><path class="cls-21" d="M882,554.47h0l9.47,5.51a.05.05,0,0,1,0,0,.06.06,0,0,1,0,.06L882,565.58h-.06l-9.48-5.51a.09.09,0,0,1,0-.06.05.05,0,0,1,0,0l9.57-5.48Zm9.35,5.57L882,554.6,872.6,560l9.35,5.44Z" transform="translate(-844.06 -457.11)"/><polygon class="cls-34" points="28.45 91.87 28.41 102.9 37.98 97.42 38.02 86.39 28.45 91.87"/><path class="cls-21" d="M882.08,543.44h0a.06.06,0,0,1,0,.06l0,11s0,0,0,.06l-9.57,5.48h-.06a.09.09,0,0,1,0-.06l0-11a.05.05,0,0,1,0-.05l9.57-5.48ZM882,554.5l0-10.89L872.57,549l0,10.88Z" transform="translate(-844.06 -457.11)"/><g class="cls-35"><polygon class="cls-21" points="28.41 102.9 28.45 91.87 37.92 97.38 37.89 108.41 28.41 102.9"/><path class="cls-21" d="M872.51,548.92h0l9.47,5.51a.06.06,0,0,1,0,.06l0,11a.06.06,0,0,1,0,.06h-.06l-9.48-5.51a.09.09,0,0,1,0-.06l0-11a.05.05,0,0,1,0-.05Zm9.41,5.61-9.35-5.44,0,10.89,9.34,5.44Z" transform="translate(-844.06 -457.11)"/></g><g class="cls-24"><polygon class="cls-21" points="38.02 86.39 28.45 91.87 37.92 97.38 47.49 91.9 38.02 86.39"/><path class="cls-21" d="M882.08,543.44h0l9.47,5.51a.06.06,0,0,1,0,.06.05.05,0,0,1,0,.05L882,554.55H882L872.48,549a.06.06,0,0,1,0-.06.05.05,0,0,1,0-.05l9.57-5.48Zm9.35,5.58-9.35-5.44L872.63,549l9.35,5.43Z" transform="translate(-844.06 -457.11)"/></g><g class="cls-24"><polygon class="cls-21" points="37.92 97.38 37.89 108.41 47.46 102.93 47.49 91.9 37.92 97.38"/><path class="cls-21" d="M891.55,549h0a.06.06,0,0,1,0,.06l0,11a.06.06,0,0,1,0,.06L882,565.58h-.06a.07.07,0,0,1,0-.06l0-11a.06.06,0,0,1,0-.06l9.57-5.48Zm-.1,11.06,0-10.89L882,554.53l0,10.89Z" transform="translate(-844.06 -457.11)"/></g><path class="cls-25" d="M872.48,549h0l9.47,5.51a.07.07,0,0,1,0,0l0,11a.07.07,0,0,1,0,.06h-.06l-9.47-5.52a.07.07,0,0,1,0-.05l0-11a.05.05,0,0,1,0,0Zm9.41,5.61-9.35-5.44,0,10.89,9.35,5.43Z" transform="translate(-844.06 -457.11)"/><path class="cls-26" d="M882.05,543.49h0l9.47,5.51a.07.07,0,0,1,0,0,.07.07,0,0,1,0,.06L882,554.6h-.06l-9.47-5.51a.06.06,0,0,1,0-.06.05.05,0,0,1,0,0L882,543.5Zm9.35,5.57-9.35-5.44L872.61,549l9.34,5.44Z" transform="translate(-844.06 -457.11)"/><path class="cls-27" d="M891.52,549h0a.07.07,0,0,1,0,0l0,11a.09.09,0,0,1,0,.06L882,565.63h-.06a.07.07,0,0,1,0-.06l0-11a.05.05,0,0,1,0,0l9.57-5.48Zm-.09,11.06,0-10.89L882,554.58l0,10.89Z" transform="translate(-844.06 -457.11)"/><polygon class="cls-36" points="49.52 104.13 49.56 93.11 59.03 98.62 59 109.64 49.52 104.13"/><path class="cls-21" d="M893.62,550.16h0l9.47,5.52a.05.05,0,0,1,0,.05l0,11a.05.05,0,0,1,0,0,.09.09,0,0,1-.07,0l-9.47-5.51a.05.05,0,0,1,0,0l0-11a.09.09,0,0,1,0-.06Zm9.41,5.61-9.35-5.44,0,10.88,9.34,5.44Z" transform="translate(-844.06 -457.11)"/><polygon class="cls-37" points="49.52 104.13 39.95 109.61 49.43 115.13 59 109.64 49.52 104.13"/><path class="cls-21" d="M893.58,561.18h0l9.48,5.51a.07.07,0,0,1,0,.06.05.05,0,0,1,0,0l-9.57,5.48h-.06L884,566.78a.05.05,0,0,1,0,0,.06.06,0,0,1,0-.06l9.57-5.48Zm9.35,5.58-9.35-5.44-9.44,5.41,9.35,5.44Z" transform="translate(-844.06 -457.11)"/><polygon class="cls-38" points="39.99 98.59 39.95 109.61 49.52 104.13 49.56 93.11 39.99 98.59"/><path class="cls-21" d="M893.62,550.16h0a.09.09,0,0,1,0,.06l0,11a.07.07,0,0,1,0,0L884,566.78H884a.05.05,0,0,1,0,0l0-11a.05.05,0,0,1,0-.05l9.57-5.49Zm-.1,11.05,0-10.88-9.45,5.41,0,10.88Z" transform="translate(-844.06 -457.11)"/><g class="cls-35"><polygon class="cls-21" points="39.96 109.61 39.99 98.59 49.46 104.1 49.43 115.13 39.96 109.61"/><path class="cls-21" d="M884.05,555.64h0l9.47,5.51a.05.05,0,0,1,0,.05l0,11a.05.05,0,0,1,0,0h-.06L884,566.78a.05.05,0,0,1,0,0l0-11a.05.05,0,0,1,0-.05Zm9.41,5.61-9.35-5.44,0,10.88,9.34,5.44Z" transform="translate(-844.06 -457.11)"/></g><g class="cls-24"><polygon class="cls-21" points="49.56 93.11 39.99 98.59 49.46 104.1 59.03 98.62 49.56 93.11"/><path class="cls-21" d="M893.62,550.16h0l9.47,5.51a.06.06,0,0,1,0,.1l-9.57,5.48a0,0,0,0,1-.06,0L884,555.75a.06.06,0,0,1,0-.1l9.57-5.48Zm9.35,5.57-9.35-5.44-9.45,5.41,9.35,5.44Z" transform="translate(-844.06 -457.11)"/></g><g class="cls-24"><polygon class="cls-21" points="49.46 104.1 49.43 115.13 59 109.64 59.03 98.62 49.46 104.1"/><path class="cls-21" d="M903.09,555.67h0a.05.05,0,0,1,0,.05l0,11a.05.05,0,0,1,0,0l-9.57,5.48h-.06a.07.07,0,0,1,0,0l0-11a.05.05,0,0,1,0-.05l9.57-5.48Zm-.1,11.05,0-10.88-9.45,5.41,0,10.88Z" transform="translate(-844.06 -457.11)"/></g><path class="cls-25" d="M884,555.69h0l9.47,5.52a.07.07,0,0,1,0,0l0,11a.05.05,0,0,1,0,.05h-.06L884,566.83a.09.09,0,0,1,0-.06l0-11a.06.06,0,0,1,0-.06Zm9.41,5.6-9.35-5.43,0,10.88,9.35,5.44Z" transform="translate(-844.06 -457.11)"/><path class="cls-26" d="M893.59,550.2h0l9.47,5.51s0,0,0,.06a.1.1,0,0,1,0,.05l-9.57,5.48a.06.06,0,0,1-.06,0L884,555.8a.05.05,0,0,1,0,0,.06.06,0,0,1,0-.06l9.57-5.48Zm9.35,5.58-9.35-5.44-9.44,5.41,9.34,5.44Z" transform="translate(-844.06 -457.11)"/><path class="cls-27" d="M903.06,555.72h0s0,0,0,.06l0,11a.05.05,0,0,1,0,.05l-9.57,5.48h-.06a.05.05,0,0,1,0-.05l0-11a.09.09,0,0,1,0-.06l9.57-5.48Zm-.09,11,0-10.88-9.44,5.4,0,10.89Z" transform="translate(-844.06 -457.11)"/><polygon class="cls-39" points="61.06 110.85 61.1 99.82 70.57 105.33 70.54 116.36 61.06 110.85"/><path class="cls-21" d="M905.16,556.87h0l9.47,5.51a.05.05,0,0,1,0,.05l0,11a.09.09,0,0,1,0,.06h-.07L905.09,568a.05.05,0,0,1,0,0l0-11a.05.05,0,0,1,0,0Zm9.41,5.61L905.22,557l0,10.88,9.34,5.44Z" transform="translate(-844.06 -457.11)"/><polygon class="cls-40" points="61.06 110.85 51.49 116.33 60.97 121.84 70.54 116.36 61.06 110.85"/><path class="cls-21" d="M905.12,567.9h0l9.48,5.51a.05.05,0,0,1,0,.05.09.09,0,0,1,0,.06L905.06,579H905l-9.47-5.52a.06.06,0,0,1,0-.1l9.57-5.48Zm9.35,5.57L905.12,568l-9.44,5.41,9.35,5.44Z" transform="translate(-844.06 -457.11)"/><polygon class="cls-41" points="51.53 105.3 51.49 116.33 61.06 110.85 61.1 99.82 51.53 105.3"/><path class="cls-21" d="M905.16,556.87h0a.05.05,0,0,1,0,0l0,11a.1.1,0,0,1,0,0l-9.57,5.48s0,0-.06,0a.05.05,0,0,1,0,0l0-11a.05.05,0,0,1,0,0l9.57-5.48Zm-.1,11,0-10.88-9.45,5.41,0,10.88Z" transform="translate(-844.06 -457.11)"/><g class="cls-35"><polygon class="cls-21" points="51.49 116.33 51.53 105.3 61 110.81 60.97 121.84 51.49 116.33"/><path class="cls-21" d="M895.59,562.35h0l9.47,5.51a.05.05,0,0,1,0,0l0,11a.07.07,0,0,1,0,.06H905l-9.47-5.52a.05.05,0,0,1,0,0l0-11a.05.05,0,0,1,0,0ZM905,568l-9.35-5.44,0,10.89,9.34,5.43Z" transform="translate(-844.06 -457.11)"/></g><g class="cls-24"><polygon class="cls-21" points="61.1 99.82 51.53 105.3 61 110.81 70.57 105.33 61.1 99.82"/><path class="cls-21" d="M905.16,556.87h0l9.47,5.51a.05.05,0,0,1,0,.05.06.06,0,0,1,0,.06L905.09,568H905l-9.47-5.51a.06.06,0,0,1,0-.06.05.05,0,0,1,0,0l9.57-5.48Zm9.35,5.57L905.16,557l-9.45,5.41,9.35,5.44Z" transform="translate(-844.06 -457.11)"/></g><g class="cls-31"><polygon class="cls-21" points="61 110.81 60.97 121.84 70.54 116.36 70.57 105.33 61 110.81"/><path class="cls-21" d="M914.63,562.38h0a.05.05,0,0,1,0,.05l0,11a.09.09,0,0,1,0,.06L905.06,579H905s0,0,0-.06l0-11a.05.05,0,0,1,0,0l9.57-5.48Zm-.1,11.06,0-10.89L905.12,568l0,10.88Z" transform="translate(-844.06 -457.11)"/></g><path class="cls-25" d="M895.56,562.4h0l9.47,5.51a.07.07,0,0,1,0,.05l0,11a.05.05,0,0,1,0,0s0,0-.06,0l-9.48-5.51a.09.09,0,0,1,0,0l0-11a.05.05,0,0,1,0-.05ZM905,568l-9.35-5.44,0,10.88,9.35,5.44Z" transform="translate(-844.06 -457.11)"/><path class="cls-26" d="M905.13,556.92h0l9.47,5.51a.05.05,0,0,1,0,0,.06.06,0,0,1,0,.06L905.06,568H905l-9.47-5.51a.09.09,0,0,1,0-.06.05.05,0,0,1,0-.05l9.57-5.48Zm9.35,5.57-9.35-5.44-9.44,5.41L905,567.9Z" transform="translate(-844.06 -457.11)"/><path class="cls-27" d="M914.6,562.43h0a.05.05,0,0,1,0,0l0,11a.05.05,0,0,1,0,.05L905,579.05s0,0-.06,0a.05.05,0,0,1,0,0l0-11a.05.05,0,0,1,0-.05l9.57-5.48Zm-.09,11.05,0-10.88L905.1,568l0,10.88Z" transform="translate(-844.06 -457.11)"/><polygon class="cls-42" points="61.52 57.41 61.55 46.38 71.03 51.89 70.99 62.92 61.52 57.41"/><path class="cls-21" d="M905.61,503.43h0l9.48,5.51a.05.05,0,0,1,0,.05l0,11a.05.05,0,0,1,0,.05,0,0,0,0,1-.06,0l-9.47-5.51a.05.05,0,0,1,0-.05l0-11a.05.05,0,0,1,0-.05ZM915,509l-9.35-5.44,0,10.88,9.35,5.44Z" transform="translate(-844.06 -457.11)"/><polygon class="cls-43" points="61.52 57.41 51.95 62.89 61.42 68.4 70.99 62.92 61.52 57.41"/><path class="cls-21" d="M905.58,514.46h0l9.47,5.51a.06.06,0,0,1,0,.1l-9.57,5.49a0,0,0,0,1-.06,0L896,520.05a.06.06,0,0,1,0-.1l9.57-5.48Zm9.35,5.57-9.35-5.44L896.13,520l9.35,5.44Z" transform="translate(-844.06 -457.11)"/><polygon class="cls-44" points="51.98 51.86 51.95 62.89 61.52 57.41 61.55 46.38 51.98 51.86"/><path class="cls-21" d="M905.61,503.43h0a.07.07,0,0,1,0,.05l0,11a.05.05,0,0,1,0,.05L896,520.05s0,0-.06,0a.05.05,0,0,1,0,0l0-11a.05.05,0,0,1,0-.05l9.57-5.48Zm-.09,11.05,0-10.88L896.11,509l0,10.88Z" transform="translate(-844.06 -457.11)"/><g class="cls-24"><polygon class="cls-21" points="51.95 62.89 51.98 51.86 61.46 57.37 61.42 68.4 51.95 62.89"/><path class="cls-21" d="M896,508.91h0l9.48,5.51a.05.05,0,0,1,0,.05l0,11a.09.09,0,0,1,0,.06,0,0,0,0,1-.06,0L896,520.05a.05.05,0,0,1,0,0l0-11a.05.05,0,0,1,0-.05Zm9.41,5.61-9.34-5.44,0,10.88,9.35,5.44Z" transform="translate(-844.06 -457.11)"/></g><polygon class="cls-21" points="61.55 46.38 51.98 51.86 61.46 57.37 71.03 51.89 61.55 46.38"/><path class="cls-21" d="M905.61,503.43h0l9.48,5.51a.05.05,0,0,1,0,.05.06.06,0,0,1,0,.06l-9.57,5.48h-.07L896,509a.07.07,0,0,1,0-.06.05.05,0,0,1,0-.05l9.57-5.48ZM915,509l-9.35-5.44L896.17,509l9.35,5.44Z" transform="translate(-844.06 -457.11)"/><g class="cls-24"><polygon class="cls-21" points="61.46 57.37 61.42 68.4 70.99 62.92 71.03 51.89 61.46 57.37"/><path class="cls-21" d="M915.09,508.94h0a.05.05,0,0,1,0,.05l0,11a.05.05,0,0,1,0,.05l-9.57,5.49a0,0,0,0,1-.06,0,.05.05,0,0,1,0,0l0-11a.07.07,0,0,1,0-.05l9.56-5.48ZM915,520l0-10.88-9.44,5.41,0,10.88Z" transform="translate(-844.06 -457.11)"/></g><path class="cls-25" d="M896,509h0l9.47,5.51a.05.05,0,0,1,0,0l0,11a.05.05,0,0,1,0,.05h-.06L896,520.1a.05.05,0,0,1,0-.05l0-11a.09.09,0,0,1,0,0Zm9.41,5.61-9.35-5.44L896,520l9.35,5.44Z" transform="translate(-844.06 -457.11)"/><path class="cls-26" d="M905.59,503.48h0l9.47,5.51a.05.05,0,0,1,0,.05.07.07,0,0,1,0,.06l-9.57,5.48h-.06L896,509.07a.06.06,0,0,1,0-.1l9.57-5.48Zm9.34,5.57-9.35-5.44L896.14,509l9.35,5.44Z" transform="translate(-844.06 -457.11)"/><path class="cls-27" d="M915.06,509h0a.05.05,0,0,1,0,.05l0,11a.05.05,0,0,1,0,0l-9.57,5.48h-.06a.05.05,0,0,1,0-.05l0-11a.05.05,0,0,1,0,0L915,509Zm-.1,11,0-10.88-9.44,5.41,0,10.88Z" transform="translate(-844.06 -457.11)"/><polygon class="cls-45" points="90.12 84.2 90.15 73.18 99.63 78.69 99.59 89.72 90.12 84.2"/><path class="cls-21" d="M934.21,530.23h0l9.48,5.51a.05.05,0,0,1,0,0l0,11a.05.05,0,0,1,0,0h-.06l-9.47-5.51a.07.07,0,0,1,0,0l0-11a.09.09,0,0,1,0-.06Zm9.41,5.61-9.35-5.44,0,10.88,9.35,5.44Z" transform="translate(-844.06 -457.11)"/><polygon class="cls-46" points="90.12 84.2 80.55 89.68 90.02 95.19 99.59 89.72 90.12 84.2"/><path class="cls-21" d="M934.18,541.25h0l9.47,5.51a.09.09,0,0,1,0,.06.05.05,0,0,1,0,0l-9.57,5.48h-.06l-9.47-5.51a.05.05,0,0,1,0-.05.06.06,0,0,1,0-.06l9.57-5.48Zm9.35,5.58-9.35-5.44-9.45,5.41,9.35,5.44Z" transform="translate(-844.06 -457.11)"/><polygon class="cls-47" points="80.58 78.66 80.55 89.68 90.12 84.2 90.15 73.18 80.58 78.66"/><path class="cls-21" d="M934.21,530.23h0a.05.05,0,0,1,0,0l0,11a.05.05,0,0,1,0,0l-9.57,5.48h-.06a.05.05,0,0,1,0-.05l0-11a.05.05,0,0,1,0,0l9.57-5.49Zm-.09,11,0-10.88-9.44,5.41,0,10.88Z" transform="translate(-844.06 -457.11)"/><g class="cls-24"><polygon class="cls-21" points="80.55 89.68 80.58 78.66 90.06 84.17 90.02 95.19 80.55 89.68"/><path class="cls-21" d="M924.64,535.71h0l9.48,5.51a.05.05,0,0,1,0,0l0,11a.05.05,0,0,1,0,.05h-.06l-9.47-5.51a.05.05,0,0,1,0-.05l0-11a.05.05,0,0,1,0,0Zm9.41,5.61-9.35-5.44,0,10.88L934,552.2Z" transform="translate(-844.06 -457.11)"/></g><g class="cls-24"><polygon class="cls-21" points="90.15 73.18 80.58 78.66 90.06 84.17 99.63 78.69 90.15 73.18"/><path class="cls-21" d="M934.21,530.23h0l9.48,5.51a.05.05,0,0,1,0,0,.09.09,0,0,1,0,.05l-9.57,5.48a0,0,0,0,1-.07,0l-9.47-5.51a.06.06,0,0,1,0-.1l9.57-5.49Zm9.35,5.57-9.35-5.44-9.44,5.41,9.35,5.44Z" transform="translate(-844.06 -457.11)"/></g><g class="cls-31"><polygon class="cls-21" points="90.06 84.17 90.02 95.19 99.59 89.72 99.63 78.69 90.06 84.17"/><path class="cls-21" d="M943.68,535.74h0a.05.05,0,0,1,0,0l0,11a.05.05,0,0,1,0,0l-9.57,5.48h-.06a.05.05,0,0,1,0-.05l0-11a.09.09,0,0,1,0,0l9.57-5.48Zm-.09,11,0-10.88-9.44,5.41,0,10.88Z" transform="translate(-844.06 -457.11)"/></g><path class="cls-25" d="M924.62,535.75h0l9.47,5.52a.05.05,0,0,1,0,.05l0,11a.05.05,0,0,1,0,0H934l-9.47-5.51a.05.05,0,0,1,0,0l0-11a.06.06,0,0,1,0-.06Zm9.41,5.61-9.35-5.44,0,10.89,9.35,5.44Z" transform="translate(-844.06 -457.11)"/><path class="cls-26" d="M934.18,530.28h0l9.47,5.52a.06.06,0,0,1,0,.1l-9.57,5.48h-.06l-9.48-5.51a.05.05,0,0,1,0,0,.06.06,0,0,1,0-.06l9.57-5.48Zm9.35,5.57-9.35-5.44-9.44,5.41,9.35,5.44Z" transform="translate(-844.06 -457.11)"/><path class="cls-27" d="M943.66,535.79h0a.05.05,0,0,1,0,.05l0,11a.05.05,0,0,1,0,0l-9.57,5.48H934a.05.05,0,0,1,0,0l0-11a.09.09,0,0,1,0-.06l9.57-5.48Zm-.1,11.05,0-10.88-9.44,5.4,0,10.89Z" transform="translate(-844.06 -457.11)"/><polygon class="cls-48" points="72.79 90.83 72.82 79.8 82.3 85.31 82.26 96.34 72.79 90.83"/><path class="cls-21" d="M916.88,536.85h0l9.47,5.51a.08.08,0,0,1,0,.06l0,11a.06.06,0,0,1,0,.06h-.06L916.81,548a.11.11,0,0,1,0-.06l0-11a.05.05,0,0,1,0,0Zm9.41,5.61L916.94,537l0,10.89,9.35,5.44Z" transform="translate(-844.06 -457.11)"/><polygon class="cls-49" points="72.79 90.83 63.22 96.31 72.69 101.82 82.26 96.34 72.79 90.83"/><path class="cls-21" d="M916.85,547.88h0l9.47,5.51a.05.05,0,0,1,0,.05.06.06,0,0,1,0,.06L916.78,559h-.06l-9.48-5.51a.09.09,0,0,1,0-.06.07.07,0,0,1,0,0l9.56-5.48Zm9.34,5.57L916.85,548l-9.45,5.41,9.35,5.44Z" transform="translate(-844.06 -457.11)"/><polygon class="cls-50" points="63.25 85.28 63.22 96.31 72.79 90.83 72.82 79.8 63.25 85.28"/><path class="cls-21" d="M916.88,536.85h0a.06.06,0,0,1,0,.06l0,11a.06.06,0,0,1,0,.06l-9.57,5.48h-.07a.09.09,0,0,1,0-.06l0-11a.06.06,0,0,1,0-.06l9.57-5.48Zm-.1,11.06,0-10.89-9.45,5.41,0,10.89Z" transform="translate(-844.06 -457.11)"/><g class="cls-24"><polygon class="cls-21" points="63.22 96.31 63.25 85.28 72.72 90.79 72.69 101.82 63.22 96.31"/><path class="cls-21" d="M907.31,542.33h0l9.48,5.51a.09.09,0,0,1,0,.06l0,11a.06.06,0,0,1,0,.06h-.06l-9.47-5.51a.07.07,0,0,1,0-.06l0-11a.06.06,0,0,1,0-.06Zm9.41,5.61-9.35-5.44,0,10.89,9.35,5.44Z" transform="translate(-844.06 -457.11)"/></g><g class="cls-24"><polygon class="cls-21" points="72.82 79.8 63.25 85.28 72.72 90.79 82.3 85.31 72.82 79.8"/><path class="cls-21" d="M916.88,536.85h0l9.47,5.51a.08.08,0,0,1,0,.06.07.07,0,0,1,0,.05L916.81,548h-.06l-9.47-5.51a.05.05,0,0,1,0-.05.06.06,0,0,1,0-.06l9.57-5.48Zm9.35,5.58L916.88,537l-9.44,5.41,9.34,5.44Z" transform="translate(-844.06 -457.11)"/></g><g class="cls-31"><polygon class="cls-21" points="72.72 90.79 72.69 101.82 82.26 96.34 82.3 85.31 72.72 90.79"/><path class="cls-21" d="M926.35,542.36h0a.08.08,0,0,1,0,.06l0,11a.06.06,0,0,1,0,.06L916.78,559h-.06a.06.06,0,0,1,0-.06l0-11a.06.06,0,0,1,0-.06l9.57-5.48Zm-.09,11.06,0-10.89-9.44,5.41,0,10.89Z" transform="translate(-844.06 -457.11)"/></g><path class="cls-25" d="M907.28,542.38h0l9.48,5.51a.06.06,0,0,1,0,.06l0,11a.06.06,0,0,1,0,.06h-.06l-9.47-5.51a.09.09,0,0,1,0-.06l0-11a.05.05,0,0,1,0-.05Zm9.41,5.61-9.34-5.44,0,10.89,9.35,5.44Z" transform="translate(-844.06 -457.11)"/><path class="cls-26" d="M916.85,536.9h0l9.48,5.51a.06.06,0,0,1,0,.06.05.05,0,0,1,0,0L916.79,548h-.07l-9.47-5.51a.06.06,0,0,1,0-.06.05.05,0,0,1,0-.05l9.57-5.48Zm9.35,5.57L916.85,537l-9.44,5.4,9.35,5.44Z" transform="translate(-844.06 -457.11)"/><path class="cls-27" d="M926.33,542.41h0a.06.06,0,0,1,0,.06l0,11a.06.06,0,0,1,0,.06L916.75,559h-.06a.06.06,0,0,1,0-.06l0-11a.09.09,0,0,1,0-.06l9.57-5.48Zm-.1,11.06,0-10.89L916.82,548l0,10.89Z" transform="translate(-844.06 -457.11)"/><polygon class="cls-51" points="35.5 85.73 35.53 74.71 45.01 80.22 44.97 91.25 35.5 85.73"/><path class="cls-21" d="M879.59,531.76h0l9.48,5.51a.05.05,0,0,1,0,.05l0,11a.05.05,0,0,1,0,0H889l-9.47-5.51a.05.05,0,0,1,0,0l0-11a.05.05,0,0,1,0-.05Zm9.41,5.61-9.35-5.44,0,10.88,9.35,5.44Z" transform="translate(-844.06 -457.11)"/><polygon class="cls-52" points="35.5 85.73 25.93 91.22 35.4 96.73 44.97 91.25 35.5 85.73"/><path class="cls-21" d="M879.56,542.79h0l9.47,5.51a.09.09,0,0,1,0,.06.05.05,0,0,1,0,0l-9.57,5.48h-.06L870,548.38a.05.05,0,0,1,0,0,.09.09,0,0,1,0-.06l9.57-5.48Zm9.35,5.57-9.35-5.44-9.45,5.41,9.35,5.44Z" transform="translate(-844.06 -457.11)"/><polygon class="cls-53" points="25.96 80.19 25.93 91.22 35.5 85.73 35.53 74.71 25.96 80.19"/><path class="cls-21" d="M879.59,531.76h0a.07.07,0,0,1,0,.05l0,11a.05.05,0,0,1,0,0L870,548.38H870a.05.05,0,0,1,0,0l0-11a.05.05,0,0,1,0,0l9.57-5.48Zm-.09,11,0-10.88-9.44,5.41,0,10.88Z" transform="translate(-844.06 -457.11)"/><g class="cls-35"><polygon class="cls-21" points="25.93 91.22 25.96 80.19 35.44 85.7 35.4 96.73 25.93 91.22"/><path class="cls-21" d="M870,537.24h0l9.48,5.51a.05.05,0,0,1,0,0l0,11a.05.05,0,0,1,0,0h-.06L870,548.38a.05.05,0,0,1,0,0l0-11a.05.05,0,0,1,0,0Zm9.41,5.61-9.34-5.44,0,10.88,9.35,5.44Z" transform="translate(-844.06 -457.11)"/></g><g class="cls-24"><polygon class="cls-21" points="35.53 74.71 25.96 80.19 35.44 85.7 45.01 80.22 35.53 74.71"/><path class="cls-21" d="M879.59,531.76h0l9.48,5.51a.05.05,0,0,1,0,.05.09.09,0,0,1,0,.06l-9.57,5.48h-.07L870,537.35a.06.06,0,0,1,0-.1l9.57-5.48Zm9.35,5.57-9.35-5.44-9.44,5.41,9.35,5.44Z" transform="translate(-844.06 -457.11)"/></g><g class="cls-24"><polygon class="cls-21" points="35.44 85.7 35.4 96.73 44.97 91.25 45.01 80.22 35.44 85.7"/><path class="cls-21" d="M889.06,537.27h0a.05.05,0,0,1,0,.05l0,11a.05.05,0,0,1,0,0l-9.57,5.48h-.06a.05.05,0,0,1,0,0l0-11a.09.09,0,0,1,0,0l9.57-5.48ZM889,548.32l0-10.88-9.44,5.41,0,10.88Z" transform="translate(-844.06 -457.11)"/></g><path class="cls-25" d="M870,537.29h0l9.47,5.51a.05.05,0,0,1,0,.05l0,11a.05.05,0,0,1,0,.05h-.06l-9.47-5.51a.05.05,0,0,1,0,0l0-11a.09.09,0,0,1,0-.06Zm9.41,5.61-9.35-5.44,0,10.88,9.35,5.44Z" transform="translate(-844.06 -457.11)"/><path class="cls-26" d="M879.56,531.81h0l9.47,5.51a.06.06,0,0,1,0,.1l-9.57,5.48a0,0,0,0,1-.06,0L870,537.4a.05.05,0,0,1,0,0,.09.09,0,0,1,0-.06l9.57-5.48Zm9.35,5.57-9.35-5.44-9.44,5.41,9.35,5.44Z" transform="translate(-844.06 -457.11)"/><path class="cls-27" d="M889,537.32h0a.05.05,0,0,1,0,0l0,11a.05.05,0,0,1,0,.05l-9.57,5.48h-.06a.05.05,0,0,1,0-.05l0-11a.05.05,0,0,1,0-.05l9.57-5.48Zm-.1,11,0-10.88-9.44,5.41,0,10.88Z" transform="translate(-844.06 -457.11)"/><polygon class="cls-54" points="49.53 90.93 49.56 79.9 59.04 85.42 59 96.44 49.53 90.93"/><path class="cls-21" d="M893.62,537h0l9.48,5.51a.07.07,0,0,1,0,.06l0,11a.06.06,0,0,1,0,.06H903l-9.47-5.51a.06.06,0,0,1,0-.06l0-11a.06.06,0,0,1,0-.06Zm9.41,5.61-9.34-5.44,0,10.89,9.35,5.44Z" transform="translate(-844.06 -457.11)"/><polygon class="cls-55" points="49.53 90.93 39.96 96.41 49.43 101.92 59 96.44 49.53 90.93"/><path class="cls-21" d="M893.59,548h0l9.47,5.51a.05.05,0,0,1,0,0,.06.06,0,0,1,0,.06l-9.57,5.48h-.06L884,553.58a.06.06,0,0,1,0-.06.05.05,0,0,1,0,0l9.57-5.48Zm9.35,5.57-9.35-5.43-9.45,5.4,9.35,5.44Z" transform="translate(-844.06 -457.11)"/><polygon class="cls-56" points="39.99 85.38 39.96 96.41 49.53 90.93 49.56 79.9 39.99 85.38"/><path class="cls-21" d="M893.62,537h0a.07.07,0,0,1,0,.06l0,11a.06.06,0,0,1,0,.06l-9.57,5.48H884a.06.06,0,0,1,0-.06l0-11a.06.06,0,0,1,0-.06l9.57-5.48ZM893.53,548l0-10.89-9.44,5.41,0,10.89Z" transform="translate(-844.06 -457.11)"/><polygon class="cls-21" points="39.96 96.41 39.99 85.38 49.47 90.89 49.43 101.92 39.96 96.41"/><path class="cls-21" d="M884.05,542.43h0l9.47,5.51a.09.09,0,0,1,0,.06l0,11a.05.05,0,0,1,0,.05h-.06L884,553.58a.06.06,0,0,1,0-.06l0-11a.06.06,0,0,1,0-.06Zm9.41,5.61-9.34-5.44,0,10.89,9.35,5.44Z" transform="translate(-844.06 -457.11)"/><g class="cls-24"><polygon class="cls-21" points="49.56 79.9 39.99 85.38 49.47 90.89 59.04 85.42 49.56 79.9"/><path class="cls-21" d="M893.62,537h0l9.48,5.51a.07.07,0,0,1,0,.06.05.05,0,0,1,0,.05l-9.57,5.48a.09.09,0,0,1-.07,0L884,542.55a.05.05,0,0,1,0,0,.06.06,0,0,1,0-.06l9.57-5.48Zm9.35,5.58-9.35-5.44-9.44,5.41,9.35,5.44Z" transform="translate(-844.06 -457.11)"/></g><g class="cls-24"><polygon class="cls-21" points="49.47 90.89 49.43 101.92 59 96.44 59.04 85.42 49.47 90.89"/><path class="cls-21" d="M903.1,542.47h0a.07.07,0,0,1,0,.06l0,11a.06.06,0,0,1,0,.06l-9.57,5.48h-.06a.05.05,0,0,1,0-.05l0-11s0,0,0-.06l9.56-5.48Zm-.1,11,0-10.88-9.44,5.4,0,10.89Z" transform="translate(-844.06 -457.11)"/></g><path class="cls-25" d="M884,542.48h0l9.47,5.51a.06.06,0,0,1,0,.06l0,11a.06.06,0,0,1,0,.06h-.06L884,553.63a.07.07,0,0,1,0-.06l0-11a.09.09,0,0,1,0,0Zm9.41,5.61-9.35-5.44,0,10.89L893.4,559Z" transform="translate(-844.06 -457.11)"/><path class="cls-26" d="M893.59,537h0l9.47,5.51a.06.06,0,0,1,0,.06.05.05,0,0,1,0,0l-9.57,5.48h-.06L884,542.6a.07.07,0,0,1,0-.11l9.57-5.48Zm9.35,5.58-9.35-5.44-9.44,5.41L893.5,548Z" transform="translate(-844.06 -457.11)"/><path class="cls-27" d="M903.07,542.51h0a.06.06,0,0,1,0,.06l0,11a.06.06,0,0,1,0,.06l-9.57,5.48h-.06a.06.06,0,0,1,0-.06l0-11a.06.06,0,0,1,0-.06l9.57-5.48Zm-.1,11.06,0-10.89-9.44,5.41,0,10.89Z" transform="translate(-844.06 -457.11)"/><polygon class="cls-57" points="66.21 100.64 66.25 89.61 75.72 95.12 75.69 106.15 66.21 100.64"/><path class="cls-21" d="M910.31,546.66h0l9.47,5.51a.05.05,0,0,1,0,.05l0,11s0,0,0,.06h-.06l-9.47-5.52a.05.05,0,0,1,0,0l0-11a.07.07,0,0,1,0-.05Zm9.41,5.61-9.35-5.44,0,10.89,9.35,5.43Z" transform="translate(-844.06 -457.11)"/><polygon class="cls-58" points="66.21 100.64 56.64 106.12 66.11 111.63 75.69 106.15 66.21 100.64"/><path class="cls-21" d="M910.27,557.69h0l9.47,5.51a.07.07,0,0,1,0,0s0,0,0,.06l-9.56,5.48h-.07l-9.47-5.51a.09.09,0,0,1,0-.06.05.05,0,0,1,0-.05l9.57-5.48Zm9.35,5.57-9.35-5.44-9.44,5.41,9.34,5.44Z" transform="translate(-844.06 -457.11)"/><polygon class="cls-59" points="56.68 95.09 56.64 106.12 66.21 100.64 66.25 89.61 56.68 95.09"/><path class="cls-21" d="M910.31,546.66h0a.05.05,0,0,1,0,.05l0,11a.05.05,0,0,1,0,0l-9.57,5.49h-.06a.09.09,0,0,1,0-.06l0-11a.05.05,0,0,1,0-.05l9.57-5.48Zm-.1,11.05,0-10.88-9.44,5.41,0,10.88Z" transform="translate(-844.06 -457.11)"/><g class="cls-35"><polygon class="cls-21" points="56.64 106.12 56.68 95.09 66.15 100.6 66.11 111.63 56.64 106.12"/><path class="cls-21" d="M900.74,552.14h0l9.47,5.51a.05.05,0,0,1,0,.05l0,11a.11.11,0,0,1,0,.06h-.07l-9.47-5.51a.09.09,0,0,1,0-.06l0-11a.05.05,0,0,1,0-.05Zm9.41,5.61-9.35-5.44,0,10.89,9.35,5.43Z" transform="translate(-844.06 -457.11)"/></g><g class="cls-24"><polygon class="cls-21" points="66.25 89.61 56.68 95.09 66.15 100.6 75.72 95.12 66.25 89.61"/><path class="cls-21" d="M910.31,546.66h0l9.47,5.51a.05.05,0,0,1,0,.05.06.06,0,0,1,0,.06l-9.57,5.48h-.06l-9.47-5.51a.06.06,0,0,1,0-.06.05.05,0,0,1,0-.05l9.57-5.48Zm9.35,5.57-9.35-5.43-9.45,5.4,9.35,5.44Z" transform="translate(-844.06 -457.11)"/></g><polygon class="cls-21" points="66.15 100.6 66.11 111.63 75.69 106.15 75.72 95.12 66.15 100.6"/><path class="cls-21" d="M919.78,552.17h0a.05.05,0,0,1,0,.05l0,11s0,0,0,.06l-9.56,5.48h-.07a.07.07,0,0,1,0-.06l0-11a.05.05,0,0,1,0-.05l9.57-5.48Zm-.1,11.06,0-10.89-9.45,5.41,0,10.89Z" transform="translate(-844.06 -457.11)"/><path class="cls-25" d="M900.71,552.19h0l9.47,5.51a.05.05,0,0,1,0,0l0,11a.05.05,0,0,1,0,.05,0,0,0,0,1-.07,0l-9.47-5.51a.05.05,0,0,1,0-.05l0-11a.05.05,0,0,1,0,0Zm9.41,5.61-9.35-5.44,0,10.88,9.34,5.44Z" transform="translate(-844.06 -457.11)"/><path class="cls-26" d="M910.28,546.71h0l9.47,5.51a.05.05,0,0,1,0,0,.06.06,0,0,1,0,.06l-9.57,5.48h-.06l-9.47-5.51a.09.09,0,0,1,0-.06.05.05,0,0,1,0,0l9.57-5.48Zm9.35,5.57-9.35-5.44-9.45,5.41,9.35,5.44Z" transform="translate(-844.06 -457.11)"/><path class="cls-27" d="M919.75,552.22h0a.05.05,0,0,1,0,0l0,11a.05.05,0,0,1,0,.05l-9.57,5.48a0,0,0,0,1-.07,0,.09.09,0,0,1,0-.05l0-11a.05.05,0,0,1,0,0l9.57-5.48Zm-.1,11,0-10.88-9.45,5.41,0,10.88Z" transform="translate(-844.06 -457.11)"/><polygon class="cls-60" points="76.48 62.28 76.52 51.25 85.99 56.76 85.95 67.79 76.48 62.28"/><path class="cls-21" d="M920.57,508.3h0l9.47,5.51a.06.06,0,0,1,0,.06l0,11a.06.06,0,0,1,0,.06H930l-9.47-5.51a.09.09,0,0,1,0-.06l0-11a.05.05,0,0,1,0-.05Zm9.41,5.61-9.34-5.44,0,10.89L930,524.8Z" transform="translate(-844.06 -457.11)"/><polygon class="cls-61" points="76.48 62.28 66.91 67.76 76.38 73.27 85.95 67.79 76.48 62.28"/><path class="cls-21" d="M920.54,519.33h0l9.47,5.51a.05.05,0,0,1,0,0,.06.06,0,0,1,0,.06l-9.57,5.48h-.06l-9.47-5.51a.09.09,0,0,1,0-.06.05.05,0,0,1,0,0l9.57-5.48Zm9.35,5.57-9.35-5.44-9.45,5.41,9.35,5.44Z" transform="translate(-844.06 -457.11)"/><polygon class="cls-62" points="66.95 56.73 66.91 67.76 76.48 62.28 76.52 51.25 66.95 56.73"/><path class="cls-21" d="M920.57,508.3h0a.09.09,0,0,1,0,.05l0,11a.09.09,0,0,1,0,.06L911,524.93a.06.06,0,0,1-.06,0,.09.09,0,0,1,0-.06l0-11a.05.05,0,0,1,0-.05l9.57-5.48Zm-.09,11.06,0-10.89-9.44,5.41,0,10.88Z" transform="translate(-844.06 -457.11)"/><g class="cls-24"><polygon class="cls-21" points="66.91 67.76 66.95 56.73 76.42 62.24 76.38 73.27 66.91 67.76"/><path class="cls-21" d="M911,513.78h0l9.47,5.51a.06.06,0,0,1,0,.06l0,11a.06.06,0,0,1,0,.06h-.06l-9.47-5.51a.09.09,0,0,1,0-.06l0-11a.05.05,0,0,1,0-.05Zm9.41,5.61L911.07,514l0,10.89,9.35,5.44Z" transform="translate(-844.06 -457.11)"/></g><g class="cls-63"><polygon class="cls-21" points="76.52 51.25 66.95 56.73 76.42 62.24 85.99 56.76 76.52 51.25"/><path class="cls-21" d="M920.57,508.3h0l9.47,5.51a.06.06,0,0,1,0,.06.05.05,0,0,1,0,0l-9.57,5.48h-.06L911,513.9a.06.06,0,0,1,0-.06.05.05,0,0,1,0-.05l9.57-5.48Zm9.35,5.57-9.35-5.43-9.44,5.4,9.35,5.44Z" transform="translate(-844.06 -457.11)"/></g><g class="cls-24"><polygon class="cls-21" points="76.42 62.24 76.38 73.27 85.95 67.79 85.99 56.76 76.42 62.24"/><path class="cls-21" d="M930.05,513.81h0a.06.06,0,0,1,0,.06l0,11a.06.06,0,0,1,0,.06l-9.57,5.48h-.06a.06.06,0,0,1,0-.06l0-11a.07.07,0,0,1,0-.06l9.57-5.48Zm-.1,11.06L930,514l-9.44,5.41,0,10.89Z" transform="translate(-844.06 -457.11)"/></g><path class="cls-25" d="M911,513.83h0l9.47,5.51a.05.05,0,0,1,0,0l0,11s0,0,0,.06h-.06L910.91,525a.05.05,0,0,1,0-.05l0-11a.07.07,0,0,1,0,0Zm9.41,5.61L911,514l0,10.88,9.35,5.44Z" transform="translate(-844.06 -457.11)"/><path class="cls-26" d="M920.55,508.35h0l9.47,5.51a.05.05,0,0,1,0,0,.06.06,0,0,1,0,.06l-9.57,5.48h-.06L910.94,514a.11.11,0,0,1,0-.06.07.07,0,0,1,0,0l9.56-5.48Zm9.34,5.57-9.34-5.44-9.45,5.41,9.35,5.44Z" transform="translate(-844.06 -457.11)"/><path class="cls-27" d="M930,513.86h0a.05.05,0,0,1,0,0l0,11a.09.09,0,0,1,0,.06l-9.57,5.48h-.06a.09.09,0,0,1,0-.06l0-11a.05.05,0,0,1,0,0l9.57-5.48Zm-.1,11.06L930,514l-9.45,5.41,0,10.88Z" transform="translate(-844.06 -457.11)"/><polygon class="cls-64" points="84.6 70.84 84.63 59.81 94.11 65.32 94.07 76.35 84.6 70.84"/><path class="cls-21" d="M928.69,516.86h0l9.48,5.51a.09.09,0,0,1,0,0l0,11a.05.05,0,0,1,0,0h-.06L928.63,528a.05.05,0,0,1,0,0l0-11a.05.05,0,0,1,0,0Zm9.41,5.61L928.75,517l0,10.88,9.35,5.44Z" transform="translate(-844.06 -457.11)"/><polygon class="cls-65" points="84.6 70.84 75.03 76.31 84.5 81.83 94.07 76.35 84.6 70.84"/><path class="cls-21" d="M928.66,527.89h0l9.47,5.52a.06.06,0,0,1,0,.1L928.59,539h-.06l-9.47-5.51a.05.05,0,0,1,0-.05.09.09,0,0,1,0-.06l9.57-5.48Zm9.34,5.57L928.66,528l-9.45,5.41,9.35,5.44Z" transform="translate(-844.06 -457.11)"/><polygon class="cls-66" points="75.06 65.29 75.03 76.31 84.6 70.84 84.63 59.81 75.06 65.29"/><path class="cls-21" d="M928.69,516.86h0a.05.05,0,0,1,0,0l0,11a.05.05,0,0,1,0,0l-9.57,5.48h-.06a.05.05,0,0,1,0-.05l0-11a.05.05,0,0,1,0,0l9.57-5.48Zm-.1,11,0-10.88-9.45,5.41,0,10.88Z" transform="translate(-844.06 -457.11)"/><g class="cls-24"><polygon class="cls-21" points="75.03 76.32 75.06 65.29 84.54 70.8 84.5 81.83 75.03 76.32"/><path class="cls-21" d="M919.12,522.34h0l9.48,5.51a.05.05,0,0,1,0,0l0,11a.05.05,0,0,1,0,0h-.06l-9.47-5.51a.05.05,0,0,1,0-.05l0-11a.05.05,0,0,1,0,0Zm9.41,5.61-9.35-5.44,0,10.88,9.35,5.44Z" transform="translate(-844.06 -457.11)"/></g><g class="cls-63"><polygon class="cls-21" points="84.63 59.81 75.06 65.29 84.54 70.8 94.11 65.32 84.63 59.81"/><path class="cls-21" d="M928.69,516.86h0l9.48,5.51a.09.09,0,0,1,0,0s0,0,0,.06L928.63,528h-.07l-9.47-5.52a.06.06,0,0,1,0-.1l9.57-5.48Zm9.35,5.57L928.69,517l-9.44,5.41,9.35,5.44Z" transform="translate(-844.06 -457.11)"/></g><g class="cls-31"><polygon class="cls-21" points="84.54 70.8 84.5 81.83 94.07 76.35 94.11 65.32 84.54 70.8"/><path class="cls-21" d="M938.16,522.37h0a.09.09,0,0,1,0,0l0,11a.05.05,0,0,1,0,0L928.59,539h-.06a.05.05,0,0,1,0,0l0-11a.09.09,0,0,1,0,0l9.57-5.48Zm-.09,11,0-10.88L928.66,528l0,10.88Z" transform="translate(-844.06 -457.11)"/></g><path class="cls-25" d="M919.09,522.39h0l9.47,5.51a.05.05,0,0,1,0,.05l0,11a.05.05,0,0,1,0,0h-.06L919,533.53a.05.05,0,0,1,0,0l0-11a.05.05,0,0,1,0-.05ZM928.5,528l-9.34-5.44,0,10.88,9.35,5.44Z" transform="translate(-844.06 -457.11)"/><path class="cls-26" d="M928.66,516.91h0l9.47,5.51a.06.06,0,0,1,0,.1L928.6,528a0,0,0,0,1-.06,0l-9.48-5.51a.06.06,0,0,1,0-.1l9.57-5.48Zm9.35,5.57L928.66,517l-9.44,5.41,9.35,5.44Z" transform="translate(-844.06 -457.11)"/><path class="cls-27" d="M938.14,522.42h0a.05.05,0,0,1,0,.05l0,11a.05.05,0,0,1,0,0L928.56,539h-.06a.05.05,0,0,1,0,0l0-11a.1.1,0,0,1,0-.05l9.57-5.48Zm-.1,11.05,0-10.88L928.63,528l0,10.88Z" transform="translate(-844.06 -457.11)"/><polygon class="cls-67" points="49.71 64.2 49.75 53.17 59.22 58.68 59.18 69.71 49.71 64.2"/><path class="cls-21" d="M893.81,510.22h0l9.47,5.51a.06.06,0,0,1,0,.06l0,11a.09.09,0,0,1,0,.06h-.06l-9.47-5.51a.09.09,0,0,1,0-.06l0-11a.07.07,0,0,1,0,0Zm9.41,5.61-9.35-5.44,0,10.89,9.35,5.44Z" transform="translate(-844.06 -457.11)"/><polygon class="cls-68" points="49.71 64.2 40.14 69.68 49.62 75.19 59.18 69.71 49.71 64.2"/><path class="cls-21" d="M893.77,521.25h0l9.47,5.51a.07.07,0,0,1,0,.05.09.09,0,0,1,0,.06l-9.57,5.48h-.06l-9.47-5.51a.07.07,0,0,1,0-.06.05.05,0,0,1,0,0l9.57-5.48Zm9.35,5.57-9.35-5.44-9.44,5.41,9.34,5.44Z" transform="translate(-844.06 -457.11)"/><polygon class="cls-69" points="40.18 58.65 40.14 69.68 49.71 64.2 49.75 53.17 40.18 58.65"/><path class="cls-21" d="M893.81,510.22h0a.05.05,0,0,1,0,0l0,11a.07.07,0,0,1,0,.06l-9.57,5.48h-.06a.07.07,0,0,1,0-.06l0-11a.07.07,0,0,1,0,0l9.57-5.48Zm-.1,11.06,0-10.89-9.44,5.41,0,10.89Z" transform="translate(-844.06 -457.11)"/><g class="cls-24"><polygon class="cls-21" points="40.14 69.68 40.18 58.65 49.65 64.16 49.62 75.19 40.14 69.68"/><path class="cls-21" d="M884.24,515.7h0l9.47,5.51a.06.06,0,0,1,0,.06l0,11a.07.07,0,0,1,0,.06h-.06l-9.47-5.51a.07.07,0,0,1,0-.06l0-11a.07.07,0,0,1,0,0Zm9.41,5.61-9.35-5.44,0,10.89,9.35,5.44Z" transform="translate(-844.06 -457.11)"/></g><g class="cls-63"><polygon class="cls-21" points="49.75 53.17 40.18 58.65 49.65 64.16 59.22 58.68 49.75 53.17"/><path class="cls-21" d="M893.81,510.22h0l9.47,5.51a.06.06,0,0,1,0,.06.05.05,0,0,1,0,.05l-9.57,5.48h-.06l-9.47-5.51a.07.07,0,0,1,0-.06.07.07,0,0,1,0,0l9.57-5.48Zm9.34,5.58-9.34-5.44-9.45,5.41,9.35,5.43Z" transform="translate(-844.06 -457.11)"/></g><g class="cls-24"><polygon class="cls-21" points="49.65 64.16 49.62 75.19 59.18 69.71 59.22 58.68 49.65 64.16"/><path class="cls-21" d="M903.28,515.73h0a.06.06,0,0,1,0,.06l0,11a.09.09,0,0,1,0,.06l-9.57,5.48h-.06a.06.06,0,0,1,0-.06l0-11a.06.06,0,0,1,0-.06l9.57-5.48Zm-.1,11.06,0-10.89-9.45,5.41,0,10.89Z" transform="translate(-844.06 -457.11)"/></g><path class="cls-25" d="M884.21,515.75h0l9.47,5.51a.05.05,0,0,1,0,.05l0,11a.09.09,0,0,1,0,.06h-.07l-9.47-5.52a.05.05,0,0,1,0,0l0-11a.05.05,0,0,1,0,0Zm9.41,5.61-9.35-5.44,0,10.89,9.34,5.43Z" transform="translate(-844.06 -457.11)"/><path class="cls-26" d="M893.78,510.27h0l9.47,5.51a.05.05,0,0,1,0,.05.06.06,0,0,1,0,.06l-9.57,5.48h-.06l-9.47-5.51a.06.06,0,0,1,0-.06.05.05,0,0,1,0,0l9.57-5.48Zm9.35,5.57-9.35-5.44-9.45,5.41,9.35,5.44Z" transform="translate(-844.06 -457.11)"/><path class="cls-27" d="M903.25,515.78h0a.05.05,0,0,1,0,.05l0,11a.11.11,0,0,1,0,.06l-9.57,5.48h-.07a.09.09,0,0,1,0-.06l0-11a.05.05,0,0,1,0-.05l9.57-5.48Zm-.1,11.06,0-10.89-9.45,5.41,0,10.88Z" transform="translate(-844.06 -457.11)"/><polygon class="cls-70" points="61.25 70.91 61.29 59.89 70.76 65.4 70.72 76.42 61.25 70.91"/><path class="cls-21" d="M905.35,516.94h0l9.47,5.51a.05.05,0,0,1,0,0l0,11a.05.05,0,0,1,0,.05h-.06l-9.47-5.51a.05.05,0,0,1,0-.05l0-11a.09.09,0,0,1,0,0Zm9.41,5.61-9.35-5.44,0,10.88,9.35,5.44Z" transform="translate(-844.06 -457.11)"/><polygon class="cls-71" points="61.25 70.91 51.68 76.39 61.16 81.91 70.72 76.42 61.25 70.91"/><path class="cls-21" d="M905.31,528h0l9.47,5.51a.09.09,0,0,1,0,.06.05.05,0,0,1,0,.05l-9.57,5.48h-.06l-9.47-5.51a.05.05,0,0,1,0,0,.06.06,0,0,1,0-.06l9.57-5.48Zm9.35,5.58-9.35-5.44-9.44,5.41,9.34,5.44Z" transform="translate(-844.06 -457.11)"/><polygon class="cls-72" points="51.72 65.37 51.68 76.39 61.25 70.91 61.29 59.89 51.72 65.37"/><path class="cls-21" d="M905.35,516.94h0a.05.05,0,0,1,0,0l0,11a.05.05,0,0,1,0,.05l-9.57,5.48a.06.06,0,0,1-.06,0,.05.05,0,0,1,0,0l0-11a.09.09,0,0,1,0-.05l9.57-5.48Zm-.1,11,0-10.88-9.44,5.41,0,10.88Z" transform="translate(-844.06 -457.11)"/><g class="cls-24"><polygon class="cls-21" points="51.68 76.39 51.72 65.37 61.19 70.88 61.16 81.91 51.68 76.39"/><path class="cls-21" d="M895.78,522.42h0l9.47,5.51a.05.05,0,0,1,0,0l0,11a.07.07,0,0,1,0,.05h-.06l-9.47-5.51a.05.05,0,0,1,0,0l0-11a.09.09,0,0,1,0-.05Zm9.41,5.61-9.35-5.44,0,10.88,9.35,5.44Z" transform="translate(-844.06 -457.11)"/></g><g class="cls-63"><polygon class="cls-21" points="61.29 59.89 51.72 65.37 61.19 70.88 70.76 65.4 61.29 59.89"/><path class="cls-21" d="M905.35,516.94h0l9.47,5.51a.06.06,0,0,1,0,.1L905.28,528a0,0,0,0,1-.06,0l-9.48-5.51a.06.06,0,0,1,0-.1l9.57-5.48Zm9.34,5.57-9.34-5.44-9.45,5.41,9.35,5.44Z" transform="translate(-844.06 -457.11)"/></g><g class="cls-24"><polygon class="cls-21" points="61.19 70.88 61.16 81.91 70.72 76.42 70.76 65.4 61.19 70.88"/><path class="cls-21" d="M914.82,522.45h0a.05.05,0,0,1,0,0l0,11a.05.05,0,0,1,0,.05l-9.57,5.48h-.06a.05.05,0,0,1,0-.05l0-11a.05.05,0,0,1,0,0l9.57-5.48Zm-.1,11,0-10.88L905.31,528l0,10.88Z" transform="translate(-844.06 -457.11)"/></g><path class="cls-25" d="M895.75,522.47h0l9.47,5.51a.09.09,0,0,1,0,.06l0,11a.05.05,0,0,1,0,0h-.07l-9.47-5.51a.06.06,0,0,1,0-.06l0-11a.06.06,0,0,1,0-.06Zm9.41,5.6-9.35-5.44,0,10.89,9.35,5.44Z" transform="translate(-844.06 -457.11)"/><path class="cls-26" d="M905.32,517h0l9.47,5.51a.09.09,0,0,1,0,.06.05.05,0,0,1,0,.05l-9.57,5.48h-.06l-9.47-5.51a.05.05,0,0,1,0-.05.06.06,0,0,1,0-.06l9.57-5.48Zm9.35,5.57-9.35-5.44-9.45,5.41,9.35,5.44Z" transform="translate(-844.06 -457.11)"/><path class="cls-27" d="M914.79,522.5h0a.09.09,0,0,1,0,.06l0,11a.09.09,0,0,1,0,0l-9.57,5.48h-.07a.05.05,0,0,1,0,0l0-11a.09.09,0,0,1,0-.06l9.57-5.48Zm-.1,11,0-10.88-9.45,5.4,0,10.89Z" transform="translate(-844.06 -457.11)"/><polygon class="cls-73" points="72.79 77.63 72.83 66.6 82.3 72.11 82.26 83.14 72.79 77.63"/><path class="cls-21" d="M916.89,523.65h0l9.47,5.51a.05.05,0,0,1,0,.05l0,11a.09.09,0,0,1,0,.06.06.06,0,0,1-.06,0l-9.47-5.52a.05.05,0,0,1,0,0l0-11a.09.09,0,0,1,0-.05Zm9.41,5.61L917,523.82l0,10.89,9.35,5.43Z" transform="translate(-844.06 -457.11)"/><polygon class="cls-74" points="72.79 77.63 63.22 83.11 72.69 88.62 82.26 83.14 72.79 77.63"/><path class="cls-21" d="M916.85,534.68h0l9.47,5.51a.05.05,0,0,1,0,0,.09.09,0,0,1,0,.06l-9.57,5.48h-.06l-9.47-5.52a.06.06,0,0,1,0-.1l9.57-5.48Zm9.35,5.57-9.35-5.44-9.45,5.41,9.35,5.44Z" transform="translate(-844.06 -457.11)"/><polygon class="cls-75" points="63.26 72.08 63.22 83.11 72.79 77.63 72.83 66.6 63.26 72.08"/><path class="cls-21" d="M916.89,523.65h0a.05.05,0,0,1,0,.05l0,11a.05.05,0,0,1,0,0l-9.57,5.48a0,0,0,0,1-.06,0,.05.05,0,0,1,0,0l0-11a.07.07,0,0,1,0-.05l9.56-5.48Zm-.1,11.05,0-10.88-9.44,5.41,0,10.88Z" transform="translate(-844.06 -457.11)"/><g class="cls-24"><polygon class="cls-21" points="63.22 83.11 63.26 72.08 72.73 77.59 72.69 88.62 63.22 83.11"/><path class="cls-21" d="M907.32,529.13h0l9.47,5.51a.05.05,0,0,1,0,.05l0,11s0,0,0,.06h-.06l-9.47-5.52a.05.05,0,0,1,0,0l0-11a.07.07,0,0,1,0-.05Zm9.41,5.61-9.35-5.44,0,10.89,9.35,5.43Z" transform="translate(-844.06 -457.11)"/></g><g class="cls-63"><polygon class="cls-21" points="72.83 66.6 63.26 72.08 72.73 77.59 82.3 72.11 72.83 66.6"/><path class="cls-21" d="M916.89,523.65h0l9.47,5.51a.05.05,0,0,1,0,.05.06.06,0,0,1,0,.06l-9.57,5.48h-.06l-9.47-5.51a.07.07,0,0,1,0-.06.07.07,0,0,1,0-.05l9.56-5.48Zm9.34,5.57-9.34-5.44-9.45,5.41,9.35,5.44Z" transform="translate(-844.06 -457.11)"/></g><g class="cls-31"><polygon class="cls-21" points="72.73 77.59 72.69 88.62 82.26 83.14 82.3 72.11 72.73 77.59"/><path class="cls-21" d="M926.36,529.16h0a.05.05,0,0,1,0,.05l0,11a.09.09,0,0,1,0,.06l-9.57,5.48h-.06a.09.09,0,0,1,0-.06l0-11a.05.05,0,0,1,0-.05l9.57-5.48Zm-.1,11.06,0-10.89-9.45,5.41,0,10.88Z" transform="translate(-844.06 -457.11)"/></g><path class="cls-25" d="M907.29,529.18h0l9.47,5.51a.05.05,0,0,1,0,0l0,11a.09.09,0,0,1,0,.05,0,0,0,0,1-.07,0l-9.47-5.51a.05.05,0,0,1,0-.05l0-11a.05.05,0,0,1,0,0Zm9.41,5.61-9.35-5.44,0,10.88,9.35,5.44Z" transform="translate(-844.06 -457.11)"/><path class="cls-26" d="M916.86,523.7h0l9.47,5.51a.05.05,0,0,1,0,0,.06.06,0,0,1,0,.06l-9.57,5.48a.06.06,0,0,1-.06,0l-9.47-5.51a.09.09,0,0,1,0-.06.05.05,0,0,1,0,0l9.57-5.48Zm9.35,5.57-9.35-5.44-9.45,5.41,9.35,5.44Z" transform="translate(-844.06 -457.11)"/><path class="cls-27" d="M926.33,529.21h0a.05.05,0,0,1,0,0l0,11a.09.09,0,0,1,0,.05l-9.57,5.48a0,0,0,0,1-.07,0,.05.05,0,0,1,0-.05l0-11a.05.05,0,0,1,0,0l9.57-5.48Zm-.1,11,0-10.88-9.45,5.41,0,10.88Z" transform="translate(-844.06 -457.11)"/><polygon class="cls-76" points="38.08 67.53 38.11 56.51 47.59 62.02 47.55 73.04 38.08 67.53"/><path class="cls-21" d="M882.17,513.56h0l9.48,5.52a.09.09,0,0,1,0,0l0,11a.05.05,0,0,1,0,.05h-.06l-9.47-5.51a.07.07,0,0,1,0-.05l0-11a.07.07,0,0,1,0-.06Zm9.41,5.6-9.35-5.43,0,10.88,9.35,5.44Z" transform="translate(-844.06 -457.11)"/><polygon class="cls-77" points="38.08 67.53 28.51 73.01 37.98 78.52 47.55 73.04 38.08 67.53"/><path class="cls-21" d="M882.14,524.58h0l9.47,5.51a.06.06,0,0,1,0,.06.05.05,0,0,1,0,.05l-9.57,5.48H882l-9.47-5.51a.07.07,0,0,1,0,0,.07.07,0,0,1,0-.06l9.57-5.48Zm9.34,5.58-9.34-5.44-9.45,5.41,9.35,5.44Z" transform="translate(-844.06 -457.11)"/><polygon class="cls-78" points="28.54 61.99 28.51 73.01 38.08 67.53 38.11 56.51 28.54 61.99"/><path class="cls-21" d="M882.17,513.56h0a.09.09,0,0,1,0,.06l0,11a.05.05,0,0,1,0,.05l-9.57,5.48a.06.06,0,0,1-.06,0,.07.07,0,0,1,0,0l0-11a.09.09,0,0,1,0-.06l9.57-5.48Zm-.1,11.05,0-10.88-9.45,5.4,0,10.89Z" transform="translate(-844.06 -457.11)"/><g class="cls-35"><polygon class="cls-21" points="28.51 73.01 28.54 61.99 38.02 67.5 37.98 78.52 28.51 73.01"/><path class="cls-21" d="M872.6,519h0l9.48,5.52a.09.09,0,0,1,0,.05l0,11a.05.05,0,0,1,0,.05H882l-9.47-5.51a.07.07,0,0,1,0,0l0-11a.09.09,0,0,1,0-.06Zm9.41,5.61-9.35-5.44,0,10.88,9.35,5.44Z" transform="translate(-844.06 -457.11)"/></g><g class="cls-63"><polygon class="cls-21" points="38.11 56.51 28.54 61.99 38.02 67.5 47.59 62.02 38.11 56.51"/><path class="cls-21" d="M882.17,513.56h0l9.48,5.52a.09.09,0,0,1,0,0,.07.07,0,0,1,0,0l-9.56,5.48H882l-9.47-5.51a.05.05,0,0,1,0,0,.09.09,0,0,1,0-.06l9.57-5.48Zm9.35,5.57-9.35-5.44-9.44,5.41,9.34,5.44Z" transform="translate(-844.06 -457.11)"/></g><g class="cls-24"><polygon class="cls-21" points="38.02 67.5 37.98 78.52 47.55 73.04 47.59 62.02 38.02 67.5"/><path class="cls-21" d="M891.64,519.07h0a.09.09,0,0,1,0,0l0,11a.05.05,0,0,1,0,.05l-9.57,5.48H882a.05.05,0,0,1,0-.05l0-11a.05.05,0,0,1,0-.05l9.57-5.49Zm-.09,11,0-10.88-9.44,5.41,0,10.88Z" transform="translate(-844.06 -457.11)"/></g><path class="cls-25" d="M872.57,519.08h0l9.47,5.51a.07.07,0,0,1,0,.06l0,11a.05.05,0,0,1,0,0H882l-9.47-5.51a.06.06,0,0,1,0-.06l0-11a.06.06,0,0,1,0-.06Zm9.41,5.61-9.34-5.44,0,10.89,9.35,5.44Z" transform="translate(-844.06 -457.11)"/><path class="cls-26" d="M882.14,513.6h0l9.48,5.51a.09.09,0,0,1,0,.06.05.05,0,0,1,0,.05l-9.57,5.48H882l-9.48-5.51a.05.05,0,0,1,0-.05.06.06,0,0,1,0-.06l9.57-5.48Zm9.35,5.58-9.35-5.44-9.44,5.41,9.35,5.44Z" transform="translate(-844.06 -457.11)"/><path class="cls-27" d="M891.62,519.12h0a.09.09,0,0,1,0,.06l0,11a.05.05,0,0,1,0,0L882,535.74H882a.05.05,0,0,1,0,0l0-11a.08.08,0,0,1,0-.06l9.56-5.48Zm-.1,11,0-10.88-9.44,5.4,0,10.89Z" transform="translate(-844.06 -457.11)"/><polygon class="cls-79" points="49.53 77.73 49.57 66.7 59.04 72.21 59.01 83.24 49.53 77.73"/><path class="cls-21" d="M893.63,523.75h0l9.47,5.51a.06.06,0,0,1,0,.06l0,11a.09.09,0,0,1,0,.06H903l-9.47-5.51a.09.09,0,0,1,0-.06l0-11a.05.05,0,0,1,0,0Zm9.41,5.61-9.35-5.44,0,10.89,9.35,5.44Z" transform="translate(-844.06 -457.11)"/><polygon class="cls-80" points="49.53 77.73 39.96 83.21 49.44 88.72 59.01 83.24 49.53 77.73"/><path class="cls-21" d="M893.59,534.78h0l9.48,5.51a.07.07,0,0,1,0,.11l-9.57,5.48h-.07L884,540.38a.09.09,0,0,1,0-.06.05.05,0,0,1,0-.05l9.57-5.48Zm9.35,5.57-9.35-5.44-9.44,5.41,9.35,5.44Z" transform="translate(-844.06 -457.11)"/><polygon class="cls-81" points="40 72.18 39.96 83.21 49.53 77.73 49.57 66.7 40 72.18"/><path class="cls-21" d="M893.63,523.75h0a.05.05,0,0,1,0,0l0,11a.09.09,0,0,1,0,.06l-9.57,5.48H884a.09.09,0,0,1,0-.06l0-11a.05.05,0,0,1,0,0l9.57-5.48Zm-.1,11.06,0-10.89-9.45,5.41,0,10.88Z" transform="translate(-844.06 -457.11)"/><g class="cls-35"><polygon class="cls-21" points="39.96 83.21 40 72.18 49.47 77.69 49.44 88.72 39.96 83.21"/><path class="cls-21" d="M884.06,529.23h0l9.47,5.51a.06.06,0,0,1,0,.06l0,11a.07.07,0,0,1,0,.06h-.07L884,540.38a.09.09,0,0,1,0-.06l0-11a.05.05,0,0,1,0,0Zm9.41,5.61-9.35-5.44,0,10.89,9.34,5.43Z" transform="translate(-844.06 -457.11)"/></g><g class="cls-63"><polygon class="cls-21" points="49.57 66.7 40 72.18 49.47 77.69 59.04 72.21 49.57 66.7"/><path class="cls-21" d="M893.63,523.75h0l9.47,5.51a.06.06,0,0,1,0,.06.05.05,0,0,1,0,0l-9.57,5.48h-.06L884,529.35a.06.06,0,0,1,0-.06.05.05,0,0,1,0,0l9.57-5.48Zm9.35,5.57-9.35-5.43-9.45,5.4,9.35,5.44Z" transform="translate(-844.06 -457.11)"/></g><g class="cls-24"><polygon class="cls-21" points="49.47 77.69 49.44 88.72 59.01 83.24 59.04 72.21 49.47 77.69"/><path class="cls-21" d="M903.1,529.26h0a.06.06,0,0,1,0,.06l0,11a.09.09,0,0,1,0,.06l-9.57,5.48h-.07a.07.07,0,0,1,0-.06l0-11a.06.06,0,0,1,0-.06l9.57-5.48Zm-.1,11.06,0-10.89-9.45,5.41,0,10.89Z" transform="translate(-844.06 -457.11)"/></g><path class="cls-25" d="M884,529.28h0l9.47,5.51a.05.05,0,0,1,0,.05l0,11a.09.09,0,0,1,0,.06h-.06L884,540.42a.05.05,0,0,1,0,0l0-11a.05.05,0,0,1,0-.05Zm9.41,5.61-9.35-5.44,0,10.89,9.34,5.43Z" transform="translate(-844.06 -457.11)"/><path class="cls-26" d="M893.6,523.8h0l9.47,5.51a.05.05,0,0,1,0,0,.06.06,0,0,1,0,.06l-9.57,5.48h-.06L884,529.4a.07.07,0,0,1,0-.06.05.05,0,0,1,0-.05l9.57-5.48Zm9.35,5.57-9.35-5.44-9.45,5.41,9.35,5.44Z" transform="translate(-844.06 -457.11)"/><path class="cls-27" d="M903.07,529.31h0a.05.05,0,0,1,0,0l0,11a.09.09,0,0,1,0,.06l-9.57,5.48h-.06s0,0,0-.06l0-11a.05.05,0,0,1,0-.05l9.57-5.48Zm-.1,11.06,0-10.89-9.45,5.41,0,10.88Z" transform="translate(-844.06 -457.11)"/><polygon class="cls-82" points="63.68 85.96 63.71 74.93 73.19 80.44 73.15 91.47 63.68 85.96"/><path class="cls-21" d="M907.77,532h0l9.48,5.51a.06.06,0,0,1,0,.06l0,11a.06.06,0,0,1,0,.06h-.06l-9.47-5.51a.09.09,0,0,1,0-.06l0-11a.05.05,0,0,1,0,0Zm9.41,5.61-9.35-5.44,0,10.89,9.35,5.44Z" transform="translate(-844.06 -457.11)"/><polygon class="cls-83" points="63.68 85.96 54.11 91.44 63.58 96.95 73.15 91.47 63.68 85.96"/><path class="cls-21" d="M907.74,543h0l9.47,5.51a.05.05,0,0,1,0,.05.06.06,0,0,1,0,.06l-9.57,5.48h-.06l-9.47-5.51a.09.09,0,0,1,0-.06.05.05,0,0,1,0,0l9.57-5.48Zm9.35,5.57-9.35-5.44-9.45,5.41,9.35,5.44Z" transform="translate(-844.06 -457.11)"/><polygon class="cls-84" points="54.15 80.41 54.11 91.44 63.68 85.96 63.71 74.93 54.15 80.41"/><path class="cls-21" d="M907.77,532h0a.05.05,0,0,1,0,0l0,11a.07.07,0,0,1,0,.06l-9.57,5.48h-.06a.09.09,0,0,1,0-.06l0-11a.05.05,0,0,1,0,0l9.57-5.48ZM907.68,543l0-10.89-9.44,5.41,0,10.88Z" transform="translate(-844.06 -457.11)"/><g class="cls-35"><polygon class="cls-21" points="54.11 91.44 54.15 80.41 63.62 85.92 63.58 96.95 54.11 91.44"/><path class="cls-21" d="M898.2,537.46h0l9.48,5.51a.06.06,0,0,1,0,.06l0,11a.06.06,0,0,1,0,.06h-.06l-9.47-5.51a.09.09,0,0,1,0-.06l0-11a.05.05,0,0,1,0,0Zm9.41,5.61-9.34-5.44,0,10.89,9.35,5.44Z" transform="translate(-844.06 -457.11)"/></g><g class="cls-63"><polygon class="cls-21" points="63.71 74.93 54.15 80.41 63.62 85.92 73.19 80.44 63.71 74.93"/><path class="cls-21" d="M907.77,532h0l9.48,5.51a.06.06,0,0,1,0,.06.05.05,0,0,1,0,.05l-9.57,5.48h-.07l-9.47-5.51a.06.06,0,0,1,0-.06.05.05,0,0,1,0,0l9.57-5.48Zm9.35,5.57-9.35-5.43-9.44,5.41,9.35,5.43Z" transform="translate(-844.06 -457.11)"/></g><g class="cls-31"><polygon class="cls-21" points="63.62 85.92 63.58 96.95 73.15 91.47 73.19 80.44 63.62 85.92"/><path class="cls-21" d="M917.25,537.49h0a.06.06,0,0,1,0,.06l0,11a.06.06,0,0,1,0,.06l-9.57,5.48h-.06a.06.06,0,0,1,0-.06l0-11a.09.09,0,0,1,0-.06l9.57-5.48Zm-.1,11.06,0-10.89-9.44,5.41,0,10.89Z" transform="translate(-844.06 -457.11)"/></g><path class="cls-25" d="M898.18,537.51h0l9.47,5.51a.05.05,0,0,1,0,.05l0,11a.09.09,0,0,1,0,.06h-.06l-9.47-5.52a.05.05,0,0,1,0,0l0-11a.05.05,0,0,1,0-.05Zm9.41,5.61-9.35-5.44,0,10.88,9.35,5.44Z" transform="translate(-844.06 -457.11)"/><path class="cls-26" d="M907.74,532h0l9.47,5.51a.05.05,0,0,1,0,.05.06.06,0,0,1,0,.06l-9.57,5.48h-.06l-9.48-5.51a.06.06,0,0,1,0-.06.05.05,0,0,1,0-.05l9.57-5.48Zm9.35,5.57-9.35-5.44-9.44,5.41,9.35,5.44Z" transform="translate(-844.06 -457.11)"/><path class="cls-27" d="M917.22,537.54h0a.05.05,0,0,1,0,.05l0,11a.09.09,0,0,1,0,.06l-9.57,5.48h-.06a.09.09,0,0,1,0-.06l0-11a.05.05,0,0,1,0-.05l9.57-5.48Zm-.1,11.06,0-10.89-9.44,5.41,0,10.88Z" transform="translate(-844.06 -457.11)"/><g class="cls-85"><g class="cls-85"><g class="cls-85"><g class="cls-85"><path class="cls-21" d="M961.89,559.08A29,29,0,0,0,935,528.47a28.37,28.37,0,0,0-30.39,26.6,29,29,0,0,0,26.92,30.62A28.37,28.37,0,0,0,961.89,559.08Z" transform="translate(-844.06 -457.11)"/></g></g></g></g><g class="cls-86"><g class="cls-86"><g class="cls-86"><g class="cls-86"><path class="cls-21" d="M945.27,558A12.34,12.34,0,0,0,934,544.88a12,12,0,0,0-12.77,11.33,12.35,12.35,0,0,0,11.33,13.07A12,12,0,0,0,945.27,558Z" transform="translate(-844.06 -457.11)"/></g></g></g></g><g class="cls-87"><g class="cls-87"><g class="cls-87"><g class="cls-87"><path class="cls-21" d="M943.62,562.84a29,29,0,0,0-26.92-30.61,28.36,28.36,0,0,0-30.39,26.6,29,29,0,0,0,26.92,30.62A28.36,28.36,0,0,0,943.62,562.84Z" transform="translate(-844.06 -457.11)"/></g></g></g></g><g class="cls-88"><g class="cls-88"><g class="cls-88"><g class="cls-88"><path class="cls-21" d="M924.5,560.2a12.34,12.34,0,0,0-11.32-13.07,12,12,0,0,0-12.77,11.34,12.35,12.35,0,0,0,11.33,13.07A12,12,0,0,0,924.5,560.2Z" transform="translate(-844.06 -457.11)"/></g></g></g></g><g class="cls-89"><g class="cls-89"><g class="cls-89"><g class="cls-89"><path class="cls-21" d="M929.29,510.69A24.06,24.06,0,0,0,907,485.32a23.52,23.52,0,0,0-25.19,22.05,24.07,24.07,0,0,0,22.31,25.38A23.52,23.52,0,0,0,929.29,510.69Z" transform="translate(-844.06 -457.11)"/></g></g></g></g><g class="cls-90"><g class="cls-90"><g class="cls-90"><g class="cls-90"><path class="cls-21" d="M915.52,509.75a10.23,10.23,0,0,0-9.39-10.83,9.92,9.92,0,0,0-10.58,9.4,10.24,10.24,0,0,0,9.39,10.83A9.92,9.92,0,0,0,915.52,509.75Z" transform="translate(-844.06 -457.11)"/></g></g></g></g><g class="cls-91"><g class="cls-91"><g class="cls-91"><g class="cls-91"><path class="cls-21" d="M917.4,552.81a29,29,0,0,0-26.92-30.61,28.38,28.38,0,0,0-30.4,26.6A29,29,0,0,0,887,579.42,28.36,28.36,0,0,0,917.4,552.81Z" transform="translate(-844.06 -457.11)"/></g></g></g></g><g class="cls-92"><g class="cls-92"><g class="cls-92"><g class="cls-92"><path class="cls-21" d="M900.79,551.68a12.35,12.35,0,0,0-11.33-13.07A12,12,0,0,0,876.7,550,12.34,12.34,0,0,0,888,563,12,12,0,0,0,900.79,551.68Z" transform="translate(-844.06 -457.11)"/></g></g></g></g></svg>